<?xml version="1.0" standalone="no"?>
<!DOCTYPE svg PUBLIC "-//W3C//DTD SVG 1.1//EN" "http://www.w3.org/Graphics/SVG/1.1/DTD/svg11.dtd" >
<svg xmlns="http://www.w3.org/2000/svg">
<metadata></metadata>
<defs>
<font id="georgiaregular" horiz-adv-x="1317" >
<font-face units-per-em="2048" ascent="1638" descent="-410" />
<missing-glyph horiz-adv-x="494" />
<glyph horiz-adv-x="2048" />
<glyph horiz-adv-x="2048" />
<glyph unicode="&#xd;" horiz-adv-x="494" />
<glyph unicode=" "  horiz-adv-x="494" />
<glyph unicode="&#x09;" horiz-adv-x="494" />
<glyph unicode="&#xa0;" horiz-adv-x="494" />
<glyph unicode="!" horiz-adv-x="678" d="M207 115q0 56 40.5 96.5t96.5 40.5t96.5 -40.5t40.5 -96.5t-40.5 -95.5t-96.5 -39.5t-96.5 39.5t-40.5 95.5zM216 1321q0 57 36 96t92 39t92 -38.5t36 -96.5q0 -50 -33 -336t-58 -553h-78q-22 267 -54.5 553t-32.5 336z" />
<glyph unicode="&#x22;" horiz-adv-x="843" d="M118 1417q0 46 28 79t85 33q54 0 83 -33t29 -79q0 -40 -26 -154t-58 -296h-61q-27 170 -53.5 290.5t-26.5 159.5zM499 1417q0 46 28 79t85 33q55 0 84 -33t29 -79q0 -40 -26 -154t-58 -296h-62q-23 148 -51.5 282t-28.5 168z" />
<glyph unicode="#" d="M154 371v123h249l73 251h-262v123h296l105 362h111l-105 -362h217l105 362h111l-105 -362h214v-123h-249l-72 -251h261v-123h-296l-107 -371h-111l107 371h-217l-107 -371h-111l107 371h-214zM511 492h221l75 255h-222z" />
<glyph unicode="$" horiz-adv-x="1249" d="M155 300q0 59 26 90.5t73 31.5q53 0 83 -26.5t30 -62.5q0 -27 -19 -81.5t-24 -74.5q29 -52 100.5 -84t174.5 -33v506q-44 16 -76.5 28t-85.5 34q-115 47 -180 123.5t-65 198.5q0 144 120 243t287 102v229h82v-229q99 -2 175 -29t124 -67t72.5 -88t24.5 -93t-21 -76.5 t-69 -31.5q-49 0 -81.5 25t-32.5 56q0 37 8 73.5t14 64.5q-3 6 -20 21.5t-40 28.5q-25 14 -66 25t-88 11v-464q39 -14 65.5 -24.5t65.5 -25.5q62 -24 114 -52.5t92 -68.5q40 -39 62.5 -91t22.5 -124q0 -157 -120 -263.5t-302 -118.5v-282h-82v280q-198 4 -321 94.5 t-123 224.5zM370 1025q0 -87 41 -139t124 -86q12 -5 30 -12t34 -13v440q-97 0 -163 -55t-66 -135zM681 61q117 7 175.5 66.5t58.5 156.5q0 82 -42.5 142.5t-144.5 100.5q-13 5 -24.5 9t-22.5 8v-483z" />
<glyph unicode="%" horiz-adv-x="1674" d="M109 1083q0 166 92.5 268t247.5 102q153 0 246 -102t93 -268q0 -176 -95 -273t-245 -97t-244.5 97t-94.5 273zM182 0l1176 1424h141l-1179 -1424h-138zM278 1083q0 -133 43 -214.5t127 -81.5t127.5 81.5t43.5 214.5q0 130 -43 213t-127 83q-86 0 -128.5 -83t-42.5 -213z M886 338q0 166 92.5 268t247.5 102q153 0 246 -102t93 -268q0 -176 -95 -273t-245 -97t-244.5 97t-94.5 273zM1055 338q0 -133 43 -214.5t127 -81.5t127.5 81.5t43.5 214.5q0 130 -43 213t-127 83q-86 0 -128.5 -83t-42.5 -213z" />
<glyph unicode="&#x26;" horiz-adv-x="1455" d="M75 345q0 124 65.5 224.5t244.5 213.5q-81 107 -126 185t-45 175q0 69 27.5 126.5t77.5 100.5q46 39 112 61t134 22q80 0 140.5 -25.5t98.5 -66.5q35 -38 53.5 -88t18.5 -100q0 -120 -74.5 -206.5t-205.5 -155.5q94 -127 184 -231.5t173 -205.5q67 107 104 201.5 t37 166.5q0 32 -46.5 50.5t-128.5 35.5v71h535v-71q-59 -5 -119 -23.5t-92 -58.5q-21 -24 -42.5 -71t-51.5 -111t-61 -126t-80 -124q40 -48 98 -104.5t99 -81.5q40 -23 113.5 -39t120.5 -18v-71h-412l-149 170q-33 -36 -75.5 -74.5t-89.5 -66.5q-52 -30 -104.5 -47 t-123.5 -17q-74 0 -147 21.5t-133 68.5q-58 46 -94 118t-36 172zM281 420q0 -136 77.5 -225.5t207.5 -89.5q73 0 143.5 31.5t115.5 91.5q-93 118 -209.5 258.5t-186.5 237.5q-81 -56 -114.5 -131.5t-33.5 -172.5zM405 1180q0 -69 36 -139.5t112 -170.5q103 58 148.5 125.5 t45.5 157.5q0 102 -45 156.5t-128 54.5q-47 0 -78 -19t-53 -48q-20 -28 -29 -60t-9 -57z" />
<glyph unicode="'" horiz-adv-x="441" d="M108 1417q0 46 28 79t85 33q54 0 83 -33t29 -79q0 -40 -26 -154t-58 -296h-61q-27 170 -53.5 290.5t-26.5 159.5z" />
<glyph unicode="(" horiz-adv-x="768" d="M117 596q0 415 155.5 657.5t428.5 278.5v-83q-192 -35 -292 -245t-100 -610q0 -381 98 -592.5t294 -247.5v-82q-273 34 -428.5 275t-155.5 649z" />
<glyph unicode=")" horiz-adv-x="768" d="M67 -246q196 36 294 247.5t98 592.5q0 400 -100 610t-292 245v83q273 -36 428.5 -278.5t155.5 -657.5q0 -408 -155.5 -649t-428.5 -275v82z" />
<glyph unicode="*" horiz-adv-x="967" d="M86 1099q0 34 21 52.5t54 18.5q30 0 105.5 -21t187.5 -32q-39 53 -82 100.5t-67 72.5q-28 30 -42.5 51.5t-14.5 46.5q0 27 24 47t51 20q18 0 33.5 -10t27.5 -30q14 -24 37 -107.5t63 -173.5q45 102 65.5 178.5t34.5 102.5q11 19 26.5 29.5t34.5 10.5q28 0 51.5 -19 t23.5 -48q0 -41 -55.5 -96t-150.5 -175q108 12 187.5 32.5t105.5 20.5q33 0 54 -18t21 -53q0 -37 -21 -54t-54 -17q-22 0 -105.5 21.5t-187.5 33.5q45 -62 84 -103.5t65 -69.5q27 -29 42 -51t15 -47q0 -27 -24 -47t-51 -20q-18 0 -34 10.5t-27 29.5q-16 29 -31.5 93 t-68.5 188q-48 -119 -67 -188.5t-33 -92.5q-13 -20 -26.5 -30t-34.5 -10q-28 0 -51.5 19t-23.5 48q0 24 14 45t43 53q25 26 66.5 71t82.5 102q-98 -10 -182.5 -32.5t-110.5 -22.5q-33 0 -54 16.5t-21 54.5z" />
<glyph unicode="+" d="M144 497v125h451v451h127v-451h451v-125h-451v-451h-127v451h-451z" />
<glyph unicode="," horiz-adv-x="552" d="M97 -287q48 30 86 60t62 60q30 35 51 76t27 93h-51q-67 0 -104.5 35t-37.5 94q0 42 34 81.5t93 39.5q86 0 129 -57.5t43 -159.5q0 -72 -32.5 -136t-74.5 -110q-43 -48 -91 -85t-88 -58z" />
<glyph unicode="-" horiz-adv-x="766" d="M85 465v157h596v-157h-596z" />
<glyph unicode="." horiz-adv-x="552" d="M141 115q0 56 40.5 96.5t96.5 40.5t96.5 -40.5t40.5 -96.5t-40.5 -95.5t-96.5 -39.5t-96.5 39.5t-40.5 95.5z" />
<glyph unicode="/" horiz-adv-x="960" d="M49 -424l689 1947h132l-691 -1947h-130z" />
<glyph unicode="0" horiz-adv-x="1257" d="M103 537q0 119 31.5 219t98.5 181q64 78 165 123t231 45q137 0 235 -46t163 -125q64 -77 95.5 -180.5t31.5 -216.5q0 -136 -39 -243.5t-107 -178.5q-70 -73 -166 -110t-214 -37q-129 0 -230 43t-164 118q-66 78 -98.5 182.5t-32.5 225.5zM324 537q0 -226 78.5 -363.5 t225.5 -137.5t226 137.5t79 363.5q0 238 -81.5 369t-221.5 131q-142 0 -224 -131t-82 -369z" />
<glyph unicode="1" horiz-adv-x="880" d="M131 895v84h55q108 0 193.5 40t122.5 86h83q-3 -65 -6 -152t-3 -156v-593q0 -35 15.5 -62.5t44.5 -40.5q26 -11 85 -20t88 -10v-71h-674v71q30 2 93.5 8.5t87.5 13.5q31 10 47.5 32.5t16.5 67.5v702h-249z" />
<glyph unicode="2" horiz-adv-x="1144" d="M110 0v136q27 31 75 69.5t114 83.5q40 27 96 59t127 70q79 42 121.5 74t77.5 79q23 31 37 77.5t14 132.5q0 125 -67 183.5t-172 58.5q-65 0 -123 -25.5t-87 -70.5q7 -32 17.5 -76t10.5 -86q0 -38 -31.5 -67.5t-93.5 -29.5q-50 0 -77 34.5t-27 92.5q0 54 30 108.5 t86 100.5q55 45 136 73t175 28q205 0 325.5 -91.5t120.5 -244.5q0 -73 -21.5 -133t-69.5 -106q-53 -51 -124 -87.5t-217 -101.5q-87 -39 -162 -81.5t-123 -82.5h769v-177h-937z" />
<glyph unicode="3" horiz-adv-x="1130" d="M64 -79q0 49 24 88.5t77 39.5q60 0 91.5 -29.5t31.5 -67.5q0 -32 -10.5 -81t-16.5 -70q7 -9 25.5 -24t45.5 -27q32 -15 67 -24t99 -9q60 0 115.5 20t97.5 64q44 46 68.5 107.5t24.5 161.5q0 54 -11.5 107t-42.5 92t-84.5 60.5t-135.5 21.5h-131v115h87q138 0 199 76 t61 229q0 125 -59 188.5t-167 63.5q-52 0 -85.5 -12.5t-54.5 -24.5q-25 -14 -41 -31t-24 -25q7 -32 17 -78.5t10 -88.5q0 -37 -31.5 -66.5t-92.5 -29.5q-53 0 -77.5 38t-24.5 88q0 52 29 106t86 101t139 76t189 29q123 0 203.5 -36.5t126.5 -88.5q45 -51 62 -107t17 -96 q0 -50 -14 -100.5t-46 -93.5q-35 -47 -92.5 -85.5t-144.5 -62.5v-16q56 -5 119.5 -25t114.5 -59q53 -41 87 -105.5t34 -163.5q0 -192 -154 -311.5t-385 -119.5q-94 0 -172 23.5t-134 63.5t-86.5 92t-30.5 107z" />
<glyph unicode="4" horiz-adv-x="1157" d="M49 90v154l701 855h131v-878h203v-131h-203v-455h-192v455h-640zM149 221h540v655z" />
<glyph unicode="5" horiz-adv-x="1082" d="M59 -89q0 51 25 89t77 38q60 0 91.5 -31.5t31.5 -68.5q0 -32 -11 -80t-17 -71q8 -7 26 -19t43 -23q26 -11 63.5 -19.5t87.5 -8.5q64 0 121 26t96 77q43 56 64.5 127.5t21.5 181.5q0 141 -78.5 233.5t-206.5 92.5q-80 0 -149.5 -30t-124.5 -100l-67 26l85 722h716v-178 h-635l-52 -424q45 32 118.5 63.5t161.5 31.5q73 0 151.5 -22.5t144.5 -74.5t109.5 -134t43.5 -205q0 -215 -147 -355t-373 -140q-175 0 -296 83t-121 193z" />
<glyph unicode="6" horiz-adv-x="1159" d="M103 558q0 357 212.5 602t569.5 294l18 -90l-90 -16q-217 -70 -335.5 -218t-153.5 -359q86 75 170 106t177 31q167 0 285.5 -128t118.5 -319q0 -104 -37.5 -195t-100.5 -155q-73 -73 -161.5 -108t-184.5 -35q-111 0 -201 41t-153 116q-64 76 -99 186t-35 247zM315 546 q0 -234 76.5 -366.5t201.5 -132.5q119 0 192 103.5t73 283.5q0 162 -74.5 260t-199.5 98q-75 0 -139.5 -28t-124.5 -94q-1 -12 -3 -55.5t-2 -68.5z" />
<glyph unicode="7" horiz-adv-x="1029" d="M89 681v392h940v-65l-713 -1373h-125l671 1270h-393q-87 0 -136 -2t-90 -19q-31 -13 -55.5 -66.5t-37.5 -136.5h-61z" />
<glyph unicode="8" horiz-adv-x="1221" d="M104 363q0 129 78.5 215.5t232.5 146.5q-127 71 -190 156t-63 192q0 163 138.5 273t331.5 110t312.5 -104t119.5 -261q0 -101 -66 -191.5t-194 -148.5q166 -71 239.5 -157t73.5 -218q0 -168 -145 -289t-381 -121q-221 0 -354 111t-133 286zM300 374q0 -147 86.5 -237.5 t230.5 -90.5q138 0 219 80t81 203q0 63 -27 110.5t-78 86.5q-49 38 -136.5 79.5t-189.5 84.5q-96 -52 -141 -132.5t-45 -183.5zM360 1121q0 -105 82 -178t292 -156q75 48 108 127t33 188q0 122 -72.5 198.5t-185.5 76.5t-185 -73.5t-72 -182.5z" />
<glyph unicode="9" horiz-adv-x="1159" d="M84 615q0 207 139.5 349t344.5 142q223 0 355.5 -159t132.5 -431q0 -174 -55 -327.5t-158 -269.5q-101 -114 -246.5 -189.5t-325.5 -99.5l-18 90l90 16q215 68 336 209t156 358q-82 -70 -163.5 -102.5t-183.5 -32.5q-163 0 -283.5 127t-120.5 320zM301 642 q0 -162 74.5 -260t199.5 -98q78 0 143 28.5t121 91.5q0 4 1.5 16t1.5 34q0 14 1 34t1 40q0 234 -76.5 366.5t-201.5 132.5q-119 0 -192 -102.5t-73 -282.5z" />
<glyph unicode=":" horiz-adv-x="640" d="M183 115q0 56 40.5 96.5t96.5 40.5t96.5 -40.5t40.5 -96.5t-40.5 -95.5t-96.5 -39.5t-96.5 39.5t-40.5 95.5zM183 853q0 56 40 96.5t97 40.5t97 -40.5t40 -96.5t-40.5 -96t-96.5 -40t-96.5 40t-40.5 96z" />
<glyph unicode=";" horiz-adv-x="640" d="M142 -287q48 30 85.5 60.5t62.5 59.5q30 35 51 76t27 93h-51q-67 0 -104.5 35t-37.5 94q0 42 34 81.5t93 39.5q86 0 129 -57.5t43 -159.5q0 -72 -32.5 -135.5t-74.5 -110.5q-43 -48 -91 -85t-88 -58zM183 853q0 56 40 96.5t97 40.5t97 -40.5t40 -96.5t-40.5 -96 t-96.5 -40t-96.5 40t-40.5 96z" />
<glyph unicode="&#x3c;" d="M193 503v113l925 481v-137l-769 -400l769 -401v-137z" />
<glyph unicode="=" d="M154 311v125h1009v-125h-1009zM154 683v125h1009v-125h-1009z" />
<glyph unicode="&#x3e;" d="M199 22v137l769 401l-769 400v137l925 -481v-113z" />
<glyph unicode="?" horiz-adv-x="980" d="M106 1221q0 40 22 78.5t69 74.5q40 32 108.5 55t142.5 23q106 0 188 -33.5t135 -89.5q55 -58 81.5 -130.5t26.5 -157.5q0 -185 -118 -302t-324 -141v-221h-92v379q63 5 125 20.5t111 50.5q51 37 79.5 89.5t28.5 146.5q0 150 -63.5 230t-185.5 80q-46 0 -80.5 -13.5 t-50.5 -25.5q5 -24 13.5 -69t8.5 -69q0 -37 -32 -67.5t-93 -30.5q-54 0 -77 37t-23 86zM257 115q0 56 40.5 96.5t96.5 40.5t96.5 -40.5t40.5 -96.5t-40.5 -95.5t-96.5 -39.5t-96.5 39.5t-40.5 95.5z" />
<glyph unicode="@" horiz-adv-x="1902" d="M168 477q0 171 64 332t183 287q115 123 284.5 198.5t369.5 75.5q173 0 300 -55.5t208 -146.5q81 -90 121.5 -207t40.5 -244q0 -244 -134 -412.5t-339 -168.5q-85 0 -144 42.5t-66 119.5l-7 2q-48 -73 -109.5 -116.5t-124.5 -43.5q-41 0 -83.5 13.5t-75.5 44.5 q-33 33 -52.5 86t-19.5 131q0 73 33.5 163.5t90.5 172.5q57 83 147.5 144t195.5 61q56 0 99.5 -31.5t53.5 -92.5h6l43 112h149l-189 -538q-9 -25 -14.5 -57.5t-5.5 -51.5q0 -51 26 -74.5t67 -23.5q155 0 259 145.5t104 383.5q0 118 -37 218.5t-113 177.5q-73 76 -184 120 t-254 44q-136 0 -265 -53t-235 -156q-103 -100 -167 -249t-64 -337q0 -181 50 -318.5t141 -230.5q89 -90 210 -135t262 -45q159 0 283 43t223 125l31 -51q-100 -87 -237.5 -140.5t-306.5 -53.5q-151 0 -297 48.5t-263 147.5q-116 99 -187 246.5t-71 347.5zM756 400 q0 -85 20.5 -130.5t67.5 -45.5q68 0 122 47t101 133l115 338q-14 81 -45 118t-91 37q-64 0 -117.5 -51.5t-90.5 -122.5q-39 -74 -60.5 -161.5t-21.5 -161.5z" />
<glyph unicode="A" horiz-adv-x="1374" d="M-41 0v71q26 2 65 11.5t64 25.5q40 27 62 56.5t43 81.5q107 267 236 600t230 593h80l473 -1224q15 -39 34 -63t53 -47q23 -14 60 -23.5t62 -10.5v-71h-591v71q78 5 129.5 20t51.5 37q0 9 -2 22t-6 23l-118 318h-497q-28 -70 -45.5 -122t-31.5 -96q-13 -43 -18 -70t-5 -44 q0 -40 63 -62t142 -26v-71h-534zM423 580h426l-215 550z" />
<glyph unicode="B" horiz-adv-x="1339" d="M95 0v71q24 2 70 8.5t66 15.5q31 14 44 37.5t13 60.5v1020q0 34 -11.5 60t-45.5 42q-30 15 -67 23t-62 10v71h655q76 0 145.5 -15t132.5 -53q59 -35 97 -95t38 -146q0 -75 -27 -133.5t-76 -100.5q-46 -40 -105.5 -67.5t-128.5 -42.5v-9q61 -7 136.5 -30.5t134.5 -65.5 q62 -42 103 -110t41 -165q0 -99 -43 -172t-112 -120q-67 -46 -151.5 -70t-174.5 -24h-672zM501 206q0 -63 51 -95t142 -32q149 0 228 87t79 256q0 126 -84.5 207t-241.5 81q-64 0 -108 -1.5t-66 -2.5v-500zM501 791h127q82 0 140.5 21t94.5 63q37 43 51.5 94t14.5 121 q0 117 -64 183.5t-202 66.5q-32 0 -80.5 -1.5t-81.5 -2.5v-545z" />
<glyph unicode="C" horiz-adv-x="1315" d="M78 696q0 170 52 308.5t144 238.5q91 99 215 153t265 54q105 0 190 -26t162 -73l41 68h80l9 -506h-82q-16 74 -48 160.5t-75 146.5q-48 68 -114 106.5t-151 38.5q-97 0 -180.5 -43t-144.5 -127q-58 -81 -91 -206t-33 -279q0 -136 34.5 -249.5t98.5 -199.5 q64 -85 151.5 -133t195.5 -48q81 0 149 25.5t118 67.5q50 44 88 100t62 122l75 -36q-86 -211 -228 -301.5t-338 -90.5q-127 0 -243.5 50t-206.5 144q-89 94 -142 229.5t-53 305.5z" />
<glyph unicode="D" horiz-adv-x="1534" d="M94 0v71q29 0 75.5 5.5t61.5 12.5q30 13 43.5 38.5t13.5 61.5v1024q0 34 -11.5 61t-45.5 43q-31 15 -67 22t-62 9v71h620q128 0 252 -39.5t216 -106.5q125 -89 196 -233t71 -339q0 -181 -68 -314t-177 -218q-110 -85 -247 -127t-283 -42h-588zM501 243q0 -91 53 -126 t163 -35q127 0 222 45t154 125q62 84 90.5 194.5t28.5 255.5q0 143 -38 258.5t-111 201.5q-69 82 -169.5 129t-223.5 47q-41 0 -92.5 -1.5t-76.5 -2.5v-1091z" />
<glyph unicode="E" horiz-adv-x="1338" d="M86 0v71q30 2 80 8.5t65 13.5q32 15 44.5 39t12.5 61v1020q0 33 -11 58.5t-46 41.5q-27 13 -72.5 23t-72.5 12v71h1098v-342h-75q-20 76 -86.5 161.5t-126.5 93.5q-31 4 -74 6t-98 2h-223v-564h160q77 0 112.5 14.5t62.5 48.5q22 29 37.5 77.5t20.5 91.5h75v-555h-75 q-4 48 -21.5 101.5t-36.5 77.5q-31 39 -70.5 51t-104.5 12h-160v-426q0 -64 9 -101t35 -56t71 -24.5t128 -5.5h87t91 4q38 4 78.5 14.5t57.5 28.5q46 48 96.5 145.5t64.5 143.5h72l-27 -418h-1178z" />
<glyph unicode="F" horiz-adv-x="1227" d="M86 0v71q30 2 80 6.5t65 11.5q30 13 43.5 38.5t13.5 61.5v1024q0 33 -11 58.5t-46 41.5q-27 13 -72.5 23t-72.5 12v71h1113v-355h-75q-21 79 -87.5 169t-127.5 99q-31 4 -73.5 6t-96.5 2h-238v-570h163q74 0 115 15.5t70 47.5q20 22 36.5 68.5t21.5 99.5h76v-557h-76 q-3 44 -20.5 100t-37.5 81q-30 37 -75.5 50.5t-109.5 13.5h-163v-489q0 -33 13 -59t46 -42q15 -7 65 -17t76 -11v-71h-615z" />
<glyph unicode="G" horiz-adv-x="1485" d="M78 698q0 162 53.5 300.5t151.5 240.5q95 100 226.5 155.5t281.5 55.5q120 0 209 -29t157 -70l41 68h80l9 -496h-82q-21 82 -52 161.5t-80 142.5t-119.5 100.5t-168.5 37.5q-107 0 -191 -43.5t-146 -129.5q-61 -83 -94 -207t-33 -277q0 -135 32.5 -254.5t94.5 -206.5 q62 -89 155 -140t211 -51q88 0 160.5 27t102.5 57q8 52 8.5 105t0.5 90v78q0 42 -11.5 74.5t-47.5 47.5q-33 15 -89.5 22.5t-88.5 9.5v73h622v-73q-24 -3 -64.5 -9.5t-65.5 -18.5q-30 -15 -42.5 -42.5t-12.5 -64.5v-110q0 -120 1.5 -162t3.5 -69q-133 -60 -265 -92t-259 -32 q-136 0 -262 51t-220 145q-95 95 -151 231t-56 304z" />
<glyph unicode="H" horiz-adv-x="1669" d="M98 0v71q24 2 69.5 6t62.5 12q30 12 44 36.5t14 63.5v1024q0 32 -13 58.5t-45 41.5q-27 13 -65.5 23t-66.5 12v71h589v-71q-28 -1 -68.5 -9t-60.5 -15q-34 -12 -45.5 -40t-11.5 -61v-440h667v430q0 32 -13 58.5t-45 41.5q-27 13 -65.5 23t-66.5 12v71h589v-71 q-28 -1 -68.5 -9t-60.5 -15q-34 -12 -45.5 -40t-11.5 -61v-1023q0 -35 11.5 -59t45.5 -42q17 -9 60.5 -18t68.5 -10v-71h-589v71q24 2 69.5 6t62.5 12q30 12 44 36.5t14 63.5v505h-667v-494q0 -35 11.5 -59t45.5 -42q17 -9 60.5 -18t68.5 -10v-71h-589z" />
<glyph unicode="I" horiz-adv-x="798" d="M79 0v71q27 2 78 6t72 12q33 13 48 35.5t15 62.5v1028q0 35 -11 58.5t-52 39.5q-30 12 -75.5 22.5t-74.5 12.5v71h639v-71q-31 -1 -74 -7.5t-75 -16.5q-38 -12 -51 -39t-13 -60v-1027q0 -33 14.5 -58.5t49.5 -40.5q21 -8 68.5 -17.5t80.5 -10.5v-71h-639z" />
<glyph unicode="J" horiz-adv-x="1060" d="M11 304q0 68 35 120.5t102 52.5q60 0 96.5 -33.5t36.5 -88.5q0 -32 -13 -64t-29 -57q-15 -23 -34 -54t-27 -56q21 -33 65.5 -58t119.5 -25q73 0 119.5 33.5t69.5 89.5q22 52 31.5 128t9.5 170v751q0 35 -11.5 58.5t-47.5 41.5q-31 16 -77.5 24.5t-76.5 10.5v71h626v-71 q-28 -1 -69.5 -7.5t-70.5 -16.5q-34 -12 -46 -40t-12 -61v-841q0 -66 -26.5 -140t-77.5 -132q-59 -68 -140.5 -106t-186.5 -38q-163 0 -264.5 91.5t-101.5 246.5z" />
<glyph unicode="K" horiz-adv-x="1422" d="M102 0v71q23 2 67 6t62 12q30 13 43.5 38.5t13.5 61.5v1024q0 34 -11.5 59t-45.5 41q-27 13 -64 23t-65 12v71h589v-71q-28 -1 -70 -9t-62 -15q-34 -12 -46 -40t-12 -61v-490h20q90 76 177 158.5t158 164.5q79 91 115.5 145.5t36.5 96.5q0 15 -18.5 24.5t-42.5 15.5 q-28 6 -50 7.5t-36 2.5v71h532v-71q-3 0 -13 -1t-23 -2q-14 -1 -28 -4t-36 -7q-35 -8 -72.5 -25.5t-61.5 -43.5q-103 -117 -215 -242t-222 -228q152 -172 251.5 -296t211.5 -265q43 -54 86 -86.5t74 -48.5q26 -13 65 -20t65 -8v-71h-398q-115 178 -255.5 353.5t-294.5 340.5 h-26v-494q0 -33 12.5 -59t45.5 -42q16 -7 59.5 -17t72.5 -11v-71h-589z" />
<glyph unicode="L" horiz-adv-x="1236" d="M98 0v71q24 2 69.5 7t63.5 13q30 13 43.5 38t13.5 64v1016q0 34 -11.5 60t-45.5 42q-23 12 -64.5 23.5t-68.5 13.5v71h599v-71q-28 -1 -72.5 -10t-64.5 -16q-34 -12 -46.5 -41t-12.5 -62v-953q0 -66 6.5 -102.5t30.5 -56.5q23 -18 68.5 -23.5t127.5 -5.5q37 0 77 2t76 8 q35 6 64.5 16.5t43.5 26.5q41 46 95.5 139.5t75.5 151.5h71l-30 -422h-1109z" />
<glyph unicode="M" horiz-adv-x="1899" d="M48 0v71q45 4 94.5 15t76.5 33q35 28 48 86t13 194v726q0 63 -15 103t-43 65q-31 27 -76 40t-89 15v71h484l406 -1064l347 890q19 49 32.5 102.5t14.5 71.5h463v-71q-28 -1 -71.5 -9t-63.5 -15q-34 -12 -46 -40t-12 -61v-1023q0 -35 12 -59t46 -42q18 -10 64 -18.5 t73 -9.5v-71h-627v71q34 1 87.5 7t73.5 17q31 19 45.5 43.5t14.5 61.5v1032h-15l-484 -1209h-50l-461 1234h-13v-847q0 -123 15.5 -187t47.5 -92q22 -21 91 -40t90 -20v-71h-573z" />
<glyph unicode="N" horiz-adv-x="1571" d="M24 1348v71h405l798 -1082v675q0 124 -16 190.5t-46 88.5q-28 19 -91.5 37t-96.5 20v71h577v-71q-28 -1 -86 -16t-83 -31q-36 -25 -48.5 -96t-12.5 -180v-1039h-87l-860 1161v-732q0 -123 15.5 -189t47.5 -94q23 -22 95 -41t95 -20v-71h-582v71q27 2 91 19.5t80 31.5 q35 28 48 85.5t13 196.5v699q0 46 -16 92t-43 71q-36 33 -97.5 56.5t-99.5 25.5z" />
<glyph unicode="O" horiz-adv-x="1524" d="M80 708q0 173 54 308.5t149 234.5q94 98 218.5 150t260.5 52q141 0 266 -53t216 -149q94 -98 147 -236.5t53 -306.5q0 -169 -54 -307t-150 -235q-93 -96 -216 -148t-262 -52q-148 0 -273.5 55.5t-215.5 154.5q-90 97 -141.5 235.5t-51.5 296.5zM322 708q0 -144 26 -260 t82 -206q54 -88 136 -137.5t196 -49.5q107 0 193 50t140 140q56 91 81.5 206t25.5 257q0 146 -28.5 268t-83.5 208q-55 85 -138 132.5t-190 47.5q-120 0 -204 -55t-137 -147q-50 -88 -74.5 -206t-24.5 -248z" />
<glyph unicode="P" horiz-adv-x="1249" d="M91 1348v71h648q198 0 321.5 -95.5t123.5 -254.5q0 -111 -43.5 -196.5t-120.5 -141.5q-76 -56 -167 -82t-193 -26h-159v-430q0 -35 11.5 -61.5t47.5 -40.5q18 -7 63.5 -13t83.5 -7v-71h-609v71q24 2 69.5 7t63.5 13q30 13 43.5 38t13.5 64v1024q0 35 -10 63t-47 42 q-38 13 -75.5 18.5t-64.5 7.5zM501 710h102q108 0 175.5 33.5t101.5 83.5q34 48 45 99.5t11 92.5q0 57 -13.5 116t-46.5 103q-35 47 -92 73t-142 26h-141v-627z" />
<glyph unicode="Q" horiz-adv-x="1524" d="M80 708q0 173 54 308.5t149 234.5q94 98 218.5 150t260.5 52q141 0 266 -53t216 -149q94 -98 147 -236.5t53 -306.5q0 -134 -35 -248t-99 -204q-61 -86 -145 -150t-188 -101q2 -110 79 -197.5t166 -87.5q82 0 125 5.5t71 10.5v-79q-45 -13 -112.5 -27.5t-187.5 -14.5 q-67 0 -131 19.5t-116 62.5t-86.5 109t-44.5 162q-143 5 -265 61.5t-209 154.5q-88 99 -137 232.5t-49 291.5zM322 708q0 -144 26 -260t82 -206q54 -88 136 -137.5t196 -49.5q107 0 193 50t140 140q56 91 81.5 206t25.5 257q0 146 -28.5 268t-83.5 208q-55 85 -138 132.5 t-190 47.5q-120 0 -204 -55t-137 -147q-50 -88 -74.5 -206t-24.5 -248z" />
<glyph unicode="R" horiz-adv-x="1437" d="M98 0v71q24 2 69.5 7t63.5 13q30 13 43.5 38t13.5 64v1026q0 35 -10 62t-47 41q-25 9 -65 16.5t-68 9.5v71h655q90 0 169 -18.5t143 -59.5q62 -40 99 -104.5t37 -155.5q0 -82 -25 -145t-74 -109q-45 -43 -108 -74.5t-139 -53.5q105 -139 174.5 -234t170.5 -231 q44 -60 79.5 -88.5t70.5 -46.5q26 -13 65 -20t65 -8v-71h-382q-127 199 -229.5 344t-222.5 299h-145v-450q0 -35 11 -61.5t47 -40.5q18 -7 63 -13t76 -7v-71h-600zM501 729h131q138 0 230 88.5t92 240.5q0 129 -74 204.5t-209 75.5h-170v-609z" />
<glyph unicode="S" horiz-adv-x="1149" d="M94 485h81q25 -90 58.5 -162.5t88.5 -135.5q52 -59 121.5 -94t161.5 -35q69 0 120.5 18t83.5 51t47.5 77.5t15.5 102.5q0 85 -48 158.5t-143 111.5q-65 26 -149 57.5t-145 59.5q-120 54 -186.5 141.5t-66.5 228.5q0 81 33 151t94 125q58 52 137 81.5t165 29.5 q98 0 175.5 -30t141.5 -70l41 68h80l8 -471h-81q-22 81 -49.5 155t-71.5 134q-43 58 -105 92.5t-152 34.5q-95 0 -162 -61t-67 -149q0 -92 43 -152.5t125 -99.5q73 -35 143.5 -60.5t136.5 -54.5q60 -26 115.5 -59t96.5 -77q45 -50 66.5 -109.5t21.5 -138.5q0 -188 -139 -310 t-345 -122q-95 0 -190 29.5t-164 71.5l-43 -73h-80z" />
<glyph unicode="T" horiz-adv-x="1267" d="M15 1034v385h1236v-385h-69q-9 36 -32.5 85.5t-52.5 93.5q-30 46 -65.5 80.5t-68.5 39.5q-31 4 -78 6t-87 2h-58v-1135q0 -33 14 -60.5t49 -42.5q18 -7 75.5 -19t89.5 -13v-71h-670v71q28 2 85.5 8t79.5 15q33 13 48.5 37.5t15.5 65.5v1144h-58q-31 0 -77 -1.5t-88 -6.5 q-33 -4 -68.5 -39.5t-65.5 -80.5t-53 -95.5t-32 -83.5h-70z" />
<glyph unicode="U" horiz-adv-x="1549" d="M74 1348v71h591v-71q-28 -1 -70.5 -9t-62.5 -15q-34 -12 -45.5 -40t-11.5 -61v-784q0 -57 12.5 -119.5t49.5 -116.5q39 -55 106 -90t184 -35q110 0 184.5 35t117.5 92q41 54 58 113t17 119v582q0 111 -16 181.5t-47 92.5q-35 25 -95.5 39t-92.5 16v71h580v-71 q-28 -1 -82 -12t-88 -33q-34 -23 -47 -95t-13 -176v-617q0 -118 -49 -205t-129 -143q-79 -54 -166.5 -77.5t-167.5 -23.5q-128 0 -228 33.5t-168 90.5q-67 57 -101 130.5t-34 153.5v839q0 35 -11.5 58.5t-46.5 43.5q-25 14 -64 22.5t-64 10.5z" />
<glyph unicode="V" horiz-adv-x="1365" d="M-38 1348v71h587v-71q-75 -4 -126.5 -15t-51.5 -39q0 -11 4 -26t7 -24q37 -98 120 -319.5t236 -630.5q76 185 175 437t133 346q33 91 38.5 126t5.5 57q0 23 -20.5 38.5t-54.5 26.5q-33 10 -67 15t-69 8v71h528v-71q-26 -1 -63 -11.5t-61 -25.5q-34 -21 -54.5 -54 t-40.5 -78q-67 -159 -201 -495.5t-276 -701.5h-83q-144 387 -278 746t-182 485q-12 31 -32 54.5t-53 44.5q-27 17 -60 25.5t-61 10.5z" />
<glyph unicode="W" horiz-adv-x="1998" d="M-4 1348v71h579v-71q-76 -4 -129.5 -15t-53.5 -37q0 -10 3 -26.5t5 -26.5q23 -88 81.5 -290.5t173.5 -606.5l354 1053h98l357 -1076q72 248 124 433.5t86 317.5q24 93 30 127.5t6 58.5q0 34 -46.5 57t-150.5 31v71h515v-71q-25 -1 -58 -11.5t-61 -27.5 q-35 -22 -56.5 -50.5t-37.5 -79.5q-71 -231 -165 -539.5t-203 -657.5h-92l-358 1092l-373 -1092h-88q-99 350 -205 726.5t-142 504.5q-9 31 -26.5 55t-47.5 44q-25 17 -58.5 25.5t-60.5 10.5z" />
<glyph unicode="X" horiz-adv-x="1455" d="M13 0v71q26 2 66.5 7.5t66.5 18.5q52 28 83.5 60.5t63.5 76.5q64 88 164 219.5t177 239.5q-58 85 -148 215.5t-192 279.5q-43 63 -67.5 89t-65.5 45q-24 11 -66.5 17.5t-67.5 8.5v71h657v-71q-58 -2 -120.5 -14.5t-62.5 -38.5q0 -19 25 -66.5t59 -101.5q35 -56 78 -124 t105 -157q113 153 195 276t82 160q0 32 -37.5 47t-126.5 19v71h529v-71q-25 -1 -65.5 -7.5t-67.5 -18.5q-52 -25 -77.5 -54t-68.5 -84q-80 -103 -147.5 -193.5t-162.5 -220.5q80 -114 178.5 -259t188.5 -277q31 -45 71 -85.5t65 -55.5q24 -14 64.5 -17.5t68.5 -4.5v-71h-664 v71q82 2 132.5 15.5t50.5 41.5q0 15 -23 62t-59 105q-40 64 -95 150.5t-109 165.5q-88 -116 -200 -279.5t-112 -192.5q0 -33 30.5 -48.5t134.5 -19.5v-71h-530z" />
<glyph unicode="Y" horiz-adv-x="1260" d="M-44 1348v71h605v-71q-102 -2 -144 -14t-42 -34q0 -6 6 -21t17 -38q13 -26 31 -59.5t34 -64.5q47 -89 96 -177.5t128 -230.5q157 253 239.5 394.5t82.5 169.5q0 23 -17 37t-45 22q-29 8 -63 10.5t-63 5.5v71h493v-71q-17 -1 -54 -13.5t-53 -24.5q-39 -24 -53 -37t-54 -68 q-78 -110 -144 -223t-165 -287q-37 -64 -49 -103t-12 -113v-271q0 -36 14.5 -62.5t49.5 -42.5q21 -8 75 -19.5t87 -12.5v-71h-664v71q28 2 84 7.5t78 14.5q36 15 49.5 41t13.5 64v345q0 16 -19.5 58.5t-46.5 94.5q-60 116 -133 251t-127 231q-33 57 -58.5 86t-58.5 51 q-24 15 -57.5 23t-60.5 10z" />
<glyph unicode="Z" horiz-adv-x="1232" d="M27 0v35l893 1305h-327q-57 0 -95.5 -2t-70.5 -8q-66 -13 -148.5 -109t-124.5 -203h-70l43 401h1063v-35l-893 -1305h337q85 0 181 12t125 41q65 62 121 152t83 159h70l-47 -443h-1140z" />
<glyph unicode="[" horiz-adv-x="768" d="M168 -310v1829h533v-91h-355v-1646h355v-92h-533z" />
<glyph unicode="\" horiz-adv-x="960" d="M90 1523h132l689 -1947h-130z" />
<glyph unicode="]" horiz-adv-x="768" d="M67 -218h355v1646h-355v91h533v-1829h-533v92z" />
<glyph unicode="^" d="M191 796l412 660h113l410 -660h-145l-321 524l-324 -524h-145z" />
<glyph unicode="_" d="M-5 -181h1327v-101h-1327v101z" />
<glyph unicode="`" horiz-adv-x="1024" d="M328 1460q0 29 23 53.5t59 24.5q39 0 67 -18t60 -70q34 -55 80 -125.5t122 -182.5l-38 -32q-103 82 -184 143.5t-120 93.5q-38 32 -53.5 52t-15.5 61z" />
<glyph unicode="a" horiz-adv-x="1032" d="M80 221q0 57 16 102t48 81q25 30 66 53.5t77 37.5q45 17 182.5 63t185.5 72v99q0 13 -5.5 50t-23.5 70q-20 37 -56.5 64.5t-103.5 27.5q-46 0 -85.5 -15.5t-55.5 -32.5q0 -20 9.5 -59t9.5 -72q0 -35 -31.5 -64t-87.5 -29q-50 0 -73.5 35.5t-23.5 79.5q0 46 32.5 88 t84.5 75q45 28 109 47.5t125 19.5q84 0 146.5 -11.5t113.5 -49.5q51 -37 77.5 -100.5t26.5 -163.5q0 -143 -3 -253.5t-3 -241.5q0 -39 13.5 -62t41.5 -39q15 -9 47.5 -10t66.5 -1v-64q-47 -17 -82.5 -27.5t-80.5 -10.5q-78 0 -124.5 36.5t-59.5 106.5h-6 q-65 -72 -139.5 -110t-179.5 -38q-111 0 -182.5 68t-71.5 178zM281 246q0 -83 43.5 -122t110.5 -39q71 0 125 34.5t91 81.5l6 345q-85 -25 -149 -49t-119 -60q-50 -34 -79 -80.5t-29 -110.5z" />
<glyph unicode="b" horiz-adv-x="1147" d="M-16 1461v64l362 23l14 -15v-650l7 -2q62 66 135.5 99t144.5 33q182 0 304 -144t122 -375q0 -222 -140 -373t-325 -151q-81 0 -159.5 25t-147.5 67l-74 -115l-62 14q5 74 7 178t2 201v976q0 34 -15.5 68t-39.5 49q-19 13 -63.5 19.5t-71.5 8.5zM360 226q6 -24 23.5 -56 t47.5 -61q30 -28 68 -45.5t93 -17.5q122 0 197 118t75 323q0 74 -16 151t-50 134q-34 58 -89 94t-132 36q-70 0 -122.5 -27.5t-94.5 -74.5v-574z" />
<glyph unicode="c" horiz-adv-x="930" d="M72 497q0 104 32.5 194.5t94.5 164.5q59 71 148 114.5t194 43.5q145 0 236 -69.5t91 -189.5q0 -50 -24 -88.5t-79 -38.5q-59 0 -91.5 30t-32.5 67q0 45 12 92.5t14 69.5q-18 31 -53.5 41.5t-76.5 10.5q-48 0 -91.5 -20.5t-84.5 -75.5q-37 -50 -60 -135t-23 -203 q0 -186 82.5 -303.5t216.5 -117.5q97 0 162.5 47t121.5 141l64 -42q-66 -118 -174 -187t-223 -69q-214 0 -335 142t-121 381z" />
<glyph unicode="d" horiz-adv-x="1176" d="M72 495q0 107 37 203t102 168q61 67 149.5 107t180.5 40q69 0 135.5 -17.5t114.5 -44.5v343q0 42 -14 76.5t-39 52.5q-28 19 -75.5 27.5t-102.5 12.5v62l403 23l15 -15v-1330q0 -35 13.5 -59.5t39.5 -41.5q19 -12 55 -15t66 -4v-65l-344 -22l-15 14v92l-8 2 q-52 -58 -128.5 -95t-157.5 -37q-84 0 -162.5 37.5t-136.5 105.5q-59 69 -93.5 166t-34.5 214zM281 483q0 -84 16 -152.5t54 -127.5q35 -56 89.5 -90t129.5 -34q80 0 132.5 35t88.5 77v577q-8 26 -26 56t-45 55q-29 25 -68 41.5t-91 16.5q-60 0 -110.5 -31t-89.5 -89 q-37 -56 -58.5 -142.5t-21.5 -191.5z" />
<glyph unicode="e" horiz-adv-x="990" d="M72 501q0 96 30.5 188.5t89.5 166.5q57 71 141.5 114.5t189.5 43.5q108 0 185 -34t125 -93q46 -56 68.5 -132t22.5 -165v-66h-653q0 -97 18.5 -176t58.5 -139q39 -58 102 -91.5t150 -33.5q89 0 153.5 41.5t124.5 149.5l70 -43q-62 -118 -166 -188t-239 -70 q-119 0 -208.5 42t-147.5 114t-86.5 168t-28.5 203zM271 608h456q0 56 -9.5 120t-30.5 107q-23 46 -63 75t-103 29q-105 0 -174.5 -87.5t-75.5 -243.5z" />
<glyph unicode="f" horiz-adv-x="666" d="M24 886v96h195v63q0 225 116.5 364.5t291.5 139.5q89 0 134 -35t45 -85q0 -45 -24 -76t-73 -31q-31 0 -54.5 13t-43.5 35t-37 50t-29 45q-67 -3 -103.5 -93.5t-36.5 -288.5v-101h254v-96h-254v-708q0 -35 13.5 -57t42.5 -33q24 -9 64 -14.5t69 -7.5v-66h-520v66 q23 2 47.5 4t42.5 8q28 9 41.5 31.5t13.5 58.5v718h-195z" />
<glyph unicode="g" horiz-adv-x="1043" d="M42 -187q0 102 80 161t204 64v14q-30 9 -62 22.5t-55 31.5q-26 21 -42 49.5t-16 70.5q0 53 37.5 97.5t113.5 76.5v15q-96 45 -149 115.5t-53 163.5q0 140 104.5 230t267.5 90q45 0 89.5 -9t90.5 -23h344v-96h-232v-6q37 -43 55 -95t18 -102q0 -130 -105.5 -220 t-245.5 -90h-121q-23 -8 -48 -29t-25 -57q0 -37 21 -56.5t51 -26.5q29 -8 67.5 -10t79.5 -3q44 -1 120.5 -6t108.5 -6q46 -2 92.5 -22t84.5 -55q40 -38 63 -86t23 -119t-31 -133.5t-94 -108.5q-67 -47 -160 -73t-230 -26q-224 0 -335 65.5t-111 191.5zM218 -183 q0 -35 15 -67t52 -59q35 -26 94 -42.5t144 -16.5q147 0 231.5 56.5t84.5 171.5q0 56 -26 92t-79 49q-28 4 -115 9t-202 5q-108 -21 -153.5 -70.5t-45.5 -127.5zM294 693q0 -111 48.5 -181t125.5 -70q86 0 132.5 69.5t46.5 175.5q0 117 -47.5 186.5t-133.5 69.5 q-47 0 -80.5 -19.5t-54.5 -55.5q-20 -33 -28.5 -79.5t-8.5 -95.5z" />
<glyph unicode="h" horiz-adv-x="1192" d="M6 1461v64l365 23l14 -15v-688h4q33 33 60 58.5t71 53.5q38 24 89.5 40t115.5 16q132 0 203 -83.5t71 -240.5v-513q0 -35 12.5 -56.5t41.5 -33.5q23 -9 41.5 -13.5t48.5 -6.5v-66h-484v66q23 2 51 4t46 8q28 9 41.5 31.5t13.5 58.5v507q0 105 -49.5 162t-120.5 57 q-52 0 -96.5 -16.5t-79.5 -40.5q-34 -25 -52 -50t-28 -42v-567q0 -34 13.5 -56t41.5 -34q22 -10 45.5 -15t51.5 -7v-66h-484v66q23 2 48 4.5t42 7.5q28 9 42 31.5t14 58.5v1148q0 34 -15.5 68t-40.5 51q-18 13 -63.5 18.5t-73.5 7.5z" />
<glyph unicode="i" horiz-adv-x="600" d="M43 911v65l348 22l14 -14v-804q0 -35 13.5 -58t42.5 -34q22 -9 43 -14.5t47 -7.5v-66h-477v66q23 2 47.5 4t42.5 8q28 9 41.5 31.5t13.5 58.5v609q0 32 -14.5 58.5t-40.5 44.5q-19 12 -55 20.5t-66 10.5zM169 1378q0 55 37.5 96t88.5 41q57 0 93.5 -38.5t36.5 -89.5 q0 -57 -37.5 -99.5t-92.5 -42.5q-51 0 -88.5 40.5t-37.5 92.5z" />
<glyph unicode="j" horiz-adv-x="598" d="M-151 -325q0 43 24 75.5t70 32.5q31 0 55 -13t42 -34q16 -18 32.5 -44.5t31.5 -51.5q76 0 108.5 92t32.5 295v742q0 32 -15.5 61.5t-40.5 47.5q-16 11 -76.5 22t-91.5 14v62l396 22l14 -14v-924q0 -110 -32 -206.5t-85 -159.5q-57 -67 -128.5 -102.5t-157.5 -35.5 q-89 0 -134 35.5t-45 83.5zM190 1379q0 55 37.5 96t88.5 41q57 0 93.5 -38.5t36.5 -89.5q0 -57 -37.5 -99.5t-92.5 -42.5q-51 0 -88.5 40.5t-37.5 92.5z" />
<glyph unicode="k" horiz-adv-x="1097" d="M6 1461v64l365 23l14 -15v-1043q78 78 168.5 167.5t152.5 159.5q8 9 17.5 23.5t9.5 23.5q0 27 -43.5 40t-83.5 18v64h434v-62q-84 -25 -148.5 -62.5t-98.5 -67.5q-24 -20 -68 -65t-123 -118q82 -101 184.5 -242t149.5 -204q44 -59 79 -77t102 -22v-66h-298 q-78 113 -167 242t-185 251l-82 -77v-234q0 -36 13 -59.5t42 -34.5q24 -10 46 -15t51 -7v-66h-484v66q23 2 48 4.5t42 7.5q28 9 42 31.5t14 58.5v1146q0 37 -15.5 69.5t-40.5 49.5q-21 16 -65.5 21t-71.5 7z" />
<glyph unicode="l" horiz-adv-x="586" d="M2 1461v64l371 23l14 -15v-1353q0 -35 13 -57.5t42 -34.5q22 -10 43.5 -15t48.5 -7v-66h-481v66q23 2 49 4.5t43 7.5q28 9 42 31.5t14 58.5v1142q0 36 -15.5 67.5t-40.5 49.5q-18 12 -66 22t-77 12z" />
<glyph unicode="m" horiz-adv-x="1804" d="M57 911v65l330 22l14 -14v-141h7q25 25 61 59t67 55q35 24 87.5 40t113.5 16q96 0 165 -51.5t99 -124.5q36 35 63.5 61.5t72.5 56.5q38 26 89.5 42t114.5 16q125 0 198 -82t73 -252v-501q0 -35 12 -57.5t41 -34.5q23 -9 45.5 -13.5t50.5 -6.5v-66h-481v66q23 2 46.5 4 t41.5 8q28 9 41.5 31.5t13.5 58.5v509q0 104 -47.5 160.5t-118.5 56.5q-49 0 -92 -15t-79 -42q-29 -22 -48.5 -47.5t-29.5 -42.5v-569q0 -35 12 -57.5t41 -34.5q23 -9 41.5 -13.5t48.5 -6.5v-66h-471v66q23 2 44.5 4t39.5 8q28 9 41.5 31.5t13.5 58.5v509q0 104 -47.5 160.5 t-118.5 56.5q-49 0 -92 -15.5t-79 -42.5q-29 -22 -49 -49.5t-30 -41.5v-565q0 -34 14 -57t42 -35q21 -10 43 -15t49 -7v-66h-479v66q23 2 47.5 4t42.5 8q28 9 41.5 31.5t13.5 58.5v613q0 32 -14.5 57.5t-40.5 43.5q-19 12 -47 19.5t-58 9.5z" />
<glyph unicode="n" horiz-adv-x="1210" d="M61 911v65l328 22l14 -14v-139h5q24 24 60 57.5t68 54.5q37 24 88 40t115 16q142 0 210.5 -88.5t68.5 -235.5v-513q0 -35 12 -56.5t41 -33.5q24 -10 41.5 -14t48.5 -6v-66h-483v66q23 2 50.5 4t45.5 8q28 9 41.5 31.5t13.5 58.5v507q0 105 -49.5 162t-120.5 57 q-53 0 -97 -16.5t-78 -40.5q-33 -23 -52.5 -49.5t-28.5 -42.5v-567q0 -34 14 -56t42 -34q21 -10 45.5 -15t50.5 -7v-66h-483v66q23 2 47.5 4t42.5 8q28 9 41.5 31.5t13.5 58.5v609q0 34 -14.5 62.5t-40.5 46.5q-19 12 -45 17.5t-56 7.5z" />
<glyph unicode="o" horiz-adv-x="1104" d="M70 489q0 231 134.5 378t352.5 147q207 0 341.5 -139.5t134.5 -371.5q0 -104 -33 -204.5t-94 -170.5q-69 -80 -160 -119t-204 -39q-94 0 -179 35.5t-151 103.5q-65 67 -103.5 163.5t-38.5 216.5zM277 506q0 -96 15.5 -177.5t49.5 -145.5t85.5 -100.5t127.5 -36.5 q125 0 198 121t73 334q0 75 -15 158.5t-45 141.5q-32 62 -84 99.5t-127 37.5q-77 0 -131.5 -38t-88.5 -104q-32 -61 -45 -139t-13 -151z" />
<glyph unicode="p" horiz-adv-x="1170" d="M33 -377q31 2 60 5t52 10q30 10 42 35t12 59v1049q0 30 -15 58t-39 45q-18 12 -50 18.5t-62 8.5v65l336 22l14 -12v-111l8 -2q52 60 129 100t153 40q92 0 168.5 -39t131.5 -105q59 -70 91.5 -162.5t32.5 -211.5q0 -117 -39 -213.5t-103 -164.5q-67 -69 -149 -106 t-174 -37q-89 0 -146 20t-93 47h-8v-296q0 -36 14 -60t43 -35q24 -9 68.5 -17.5t73.5 -9.5v-67h-551v67zM385 209q9 -27 29.5 -56t45.5 -50q31 -25 67 -40.5t88 -15.5q56 0 108 29.5t87 83.5q40 62 59 144t19 183q0 74 -16 151t-50 134q-34 58 -89 94t-132 36 q-74 0 -126 -32.5t-90 -77.5v-583z" />
<glyph unicode="q" horiz-adv-x="1146" d="M72 504q0 113 40 205.5t106 161.5q63 65 151.5 103.5t175.5 38.5q65 0 115.5 -12.5t86.5 -29.5q31 -13 62 -33.5t44 -27.5l85 130l57 -8q-4 -74 -10.5 -182t-6.5 -189v-912q0 -35 13 -60.5t42 -38.5q24 -10 61 -17.5t60 -9.5v-67h-533v67q31 2 61 5t54 10q31 10 43 35 t12 59v364l-6 2q-16 -18 -45.5 -41.5t-61.5 -38.5q-40 -21 -77 -32.5t-93 -11.5q-90 0 -169.5 37.5t-138.5 106.5q-59 68 -93.5 167.5t-34.5 218.5zM281 483q0 -84 15.5 -152t53.5 -127q36 -56 91 -89.5t139 -33.5q72 0 123 30.5t88 71.5v589q-8 25 -27 55.5t-45 53.5 q-28 24 -68.5 40t-93.5 16q-117 0 -196.5 -121t-79.5 -333z" />
<glyph unicode="r" horiz-adv-x="839" d="M61 911v65l328 22l14 -14v-139h5q62 81 138 123t139 42t102.5 -41t39.5 -110q0 -51 -25 -90.5t-77 -39.5q-56 0 -85.5 29t-29.5 64q0 22 3.5 40t6.5 36q-47 0 -110 -38t-107 -108v-574q0 -35 13.5 -57t42.5 -33q25 -10 64.5 -15t68.5 -7v-66h-520v66q23 2 47.5 4t42.5 8 q28 9 41.5 31.5t13.5 58.5v609q0 31 -14.5 61t-40.5 48q-19 12 -45 17.5t-56 7.5z" />
<glyph unicode="s" horiz-adv-x="885" d="M73 340h69q8 -39 34 -91t63 -94q39 -44 93.5 -74t122.5 -30q96 0 148 43.5t52 124.5q0 42 -16.5 72.5t-48.5 53.5q-33 23 -81 41.5t-107 36.5q-47 14 -104.5 38.5t-98.5 57.5q-44 35 -72 86t-28 120q0 121 90 205t241 84q58 0 118.5 -15t98.5 -36l23 52h72l15 -317h-69 q-21 106 -90.5 172.5t-169.5 66.5q-82 0 -129 -41t-47 -99q0 -45 15.5 -75t46.5 -51q30 -20 75.5 -37.5t112.5 -39.5q66 -21 124.5 -49t96.5 -62q41 -36 63 -83t22 -115q0 -137 -102.5 -224t-265.5 -87q-86 0 -158.5 31t-103.5 57l-20 -65h-75z" />
<glyph unicode="t" horiz-adv-x="707" d="M13 886v96h182v307h182v-307h283v-96h-281v-551q0 -62 4.5 -103.5t21.5 -72.5q16 -29 48 -44t86 -15q25 0 73.5 4.5t68.5 11.5v-73q-65 -27 -123 -45.5t-142 -18.5q-124 0 -174.5 62.5t-50.5 176.5v668h-178z" />
<glyph unicode="u" horiz-adv-x="1178" d="M35 909v65l329 24l15 -14v-685q0 -107 48 -161t115 -54q55 0 98 17t72 40q27 21 47.5 44.5t31.5 43.5v559q0 33 -14 58.5t-39 43.5q-18 12 -53.5 14.5t-79.5 4.5v65l358 24l15 -14v-783q0 -34 14 -58t39 -41q18 -11 43 -14.5t55 -4.5v-65l-321 -22l-15 14v125h-6 q-24 -25 -54 -53.5t-69 -51.5q-45 -27 -87 -41t-119 -14q-131 0 -199.5 85.5t-68.5 248.5v472q0 36 -13.5 60.5t-39.5 42.5q-18 12 -45 17.5t-57 7.5z" />
<glyph unicode="v" horiz-adv-x="1017" d="M-19 920v66h456v-70q-30 -1 -75 -12.5t-45 -31.5q0 -3 5 -15.5t10 -28.5q41 -102 116 -285t122 -295q36 86 90.5 214t117.5 286q10 27 19 50.5t9 47.5q0 17 -16.5 30.5t-39.5 23.5t-45 15t-36 7v64h377v-61q-45 -8 -85.5 -32.5t-69.5 -86.5q-59 -134 -122 -279.5 t-131 -305.5q-20 -46 -42.5 -109t-41.5 -121h-78q-95 235 -175 428.5t-166 396.5q-20 46 -64.5 71.5t-89.5 32.5z" />
<glyph unicode="w" horiz-adv-x="1510" d="M-5 920v66h440v-70q-33 -1 -71.5 -11t-38.5 -33q0 -4 3.5 -17t8.5 -28q32 -105 72.5 -234.5t104.5 -336.5l252 710h96l257 -700q43 134 85.5 259.5t74.5 235.5q7 26 13.5 47.5t6.5 42.5q0 18 -16 32t-39 23q-20 8 -43.5 12t-34.5 4v64h375v-64q-42 -4 -90.5 -35 t-70.5 -93q-50 -147 -94.5 -278.5t-99.5 -295.5q-18 -52 -36.5 -112t-33.5 -115h-86l-265 726l-267 -726h-82q-75 222 -146.5 440.5t-126.5 380.5q-16 47 -61 74t-87 32z" />
<glyph unicode="x" horiz-adv-x="1034" d="M12 0v62q68 20 109.5 48.5t76.5 70.5q31 40 86.5 110t143.5 190q-51 73 -124.5 178.5t-121.5 175.5q-26 38 -59.5 61.5t-94.5 23.5v66h429v-66q-32 0 -63 -4t-31 -18q0 -9 6 -20t15 -24q22 -34 68.5 -105t100.5 -150q35 48 81.5 112t85.5 122q4 7 8 17.5t4 20.5 q0 21 -34.5 33.5t-65.5 17.5v64h364v-62q-77 -20 -120 -47.5t-73 -63.5q-33 -41 -78.5 -101t-127.5 -168q91 -128 148 -210t115 -169q29 -44 64.5 -69.5t97.5 -29.5v-66h-452v66q45 5 76.5 10t31.5 26q0 9 -10 28t-20 35q-25 39 -68.5 104.5t-106.5 156.5 q-52 -65 -96 -126.5t-92 -130.5q-7 -10 -14.5 -25t-7.5 -24q0 -22 28.5 -36.5t85.5 -19.5v-64h-365z" />
<glyph unicode="y" horiz-adv-x="1008" d="M-19 920v66h450v-70q-30 -1 -72 -12.5t-42 -26.5q0 -6 4.5 -20t10.5 -29q38 -99 116 -285.5t121 -298.5q45 107 93.5 221.5t108.5 270.5q7 19 20 52.5t13 57.5q0 26 -45.5 48.5t-86.5 27.5v64h366v-62q-30 -5 -79 -34.5t-73 -83.5q-119 -276 -211.5 -503t-140.5 -334 q-63 -140 -112.5 -218.5t-96.5 -123.5q-46 -42 -83.5 -56.5t-77.5 -14.5q-78 0 -122.5 37t-44.5 85q0 50 27.5 81.5t68.5 31.5q32 0 55 -12t41 -31q15 -15 32 -41t27 -43q50 27 119.5 141t100.5 200q-95 237 -172 424t-161 387q-19 46 -64 71.5t-90 32.5z" />
<glyph unicode="z" horiz-adv-x="909" d="M55 0v53l558 852h-138q-87 0 -136 -3t-90 -20q-28 -11 -52.5 -63t-42.5 -136h-61v303h754v-41l-567 -864q36 -1 79 -1.5t93 -0.5q40 0 83.5 1t111.5 5q40 2 60.5 27t31.5 57q11 29 26.5 80t27.5 99h60v-348h-798z" />
<glyph unicode="{" horiz-adv-x="881" d="M72 537v129q70 6 130.5 20.5t97.5 41.5q43 31 62.5 78.5t19.5 115.5q0 57 -7.5 126t-7.5 129q0 104 29.5 175t87.5 113q57 41 142 56.5t188 15.5v-82q-40 -2 -93 -10.5t-84 -25.5q-36 -20 -58.5 -63.5t-22.5 -117.5v-234q0 -105 -25 -174t-74 -112q-45 -40 -107 -63.5 t-138 -37.5v-31q72 -14 135.5 -37t109.5 -64q47 -42 73 -111t26 -175v-233q0 -71 21 -115t60 -67q37 -21 86.5 -28t90.5 -9v-80q-105 0 -189 14.5t-141 54.5q-58 41 -87.5 109.5t-29.5 181.5q0 60 7.5 129.5t7.5 124.5q0 72 -21 119.5t-62 76.5q-40 29 -99 42t-128 18z" />
<glyph unicode="|" horiz-adv-x="768" d="M321 -424v1947h127v-1947h-127z" />
<glyph unicode="}" horiz-adv-x="881" d="M67 -253q41 2 91 9t86 28q39 23 60 67t21 115v233q0 106 26 175t73 111q46 41 109.5 64t135.5 37v31q-76 14 -138 37.5t-107 63.5q-49 43 -74 112t-25 174v234q0 74 -22.5 117.5t-58.5 63.5q-31 17 -84 25.5t-93 10.5v82q103 0 188 -15.5t142 -56.5q58 -42 87.5 -113 t29.5 -175q0 -60 -7.5 -129t-7.5 -126q0 -68 19.5 -115.5t62.5 -78.5q37 -26 97.5 -41t130.5 -21v-129q-69 -5 -128.5 -18.5t-98.5 -41.5q-41 -29 -62 -76.5t-21 -119.5q0 -55 7.5 -124.5t7.5 -129.5q0 -113 -29.5 -181.5t-87.5 -109.5q-56 -39 -140.5 -54t-189.5 -15v80z " />
<glyph unicode="~" d="M130 411q13 38 46.5 92t73.5 96q39 42 99.5 74t121.5 32q74 0 133.5 -21.5t110.5 -46.5q54 -27 98.5 -47.5t99.5 -20.5q70 0 114.5 49t81.5 127l78 -31q-14 -37 -46.5 -92.5t-72.5 -95.5q-49 -49 -103.5 -77.5t-118.5 -28.5q-72 0 -132 21.5t-110 46.5q-51 26 -100.5 47 t-99.5 21q-67 0 -110.5 -46t-85.5 -130z" />
<glyph unicode="&#xa1;" horiz-adv-x="678" d="M207 1309q0 56 40.5 96.5t96.5 40.5t96.5 -40.5t40.5 -96.5t-40.5 -95.5t-96.5 -39.5t-96.5 39.5t-40.5 95.5zM216 103q0 65 32 332.5t55 556.5h78q23 -242 57 -537t34 -352t-36 -96t-92 -39t-92 38.5t-36 96.5z" />
<glyph unicode="&#xa2;" horiz-adv-x="1137" d="M141 499q0 193 119 339.5t309 171.5v265h82v-260q146 -1 244 -71.5t98 -188.5q0 -61 -26.5 -94t-79.5 -33q-65 0 -93.5 30t-28.5 67q0 45 14.5 92t16.5 70q-17 26 -57 40t-88 17v-856q5 0 9 -0.5t11 -0.5q104 0 176.5 48.5t134.5 144.5l58 -46q-59 -100 -161.5 -172.5 t-227.5 -80.5v-280h-82v281q-205 18 -316.5 160.5t-111.5 356.5zM344 507q0 -160 59 -266t166 -141v839q-44 -11 -84 -41.5t-71 -80.5t-50.5 -129.5t-19.5 -180.5z" />
<glyph unicode="&#xa3;" horiz-adv-x="1274" d="M117 0v148q69 23 112.5 73t66.5 116q22 61 31 134.5t9 149.5h-167v96h167l-9 120t-6 132q0 212 126.5 349.5t328.5 137.5q88 0 154.5 -27t109.5 -67q44 -42 68 -94.5t24 -107.5q0 -50 -24 -87.5t-80 -37.5q-59 0 -93 29.5t-34 67.5q0 44 12.5 91t17.5 69q-13 28 -55 56 t-104 28q-35 0 -75.5 -10t-81.5 -43q-39 -32 -64 -91t-25 -149q0 -64 5 -177.5t5 -188.5h396v-96h-396q0 -136 -60 -247.5t-177 -187.5v-9h866v-177h-1048z" />
<glyph unicode="&#xa4;" horiz-adv-x="1170" d="M167 229l184 186q-20 31 -31 69.5t-11 74.5q0 42 10.5 76t31.5 68l-184 189l88 86l186 -185q25 17 69 29.5t75 12.5q40 0 78.5 -12t66.5 -29l185 184l90 -85l-186 -190q20 -31 31.5 -69.5t11.5 -74.5q0 -39 -12.5 -78t-30.5 -66l186 -187l-86 -87l-188 184 q-31 -19 -68.5 -30.5t-77.5 -11.5q-36 0 -75 11.5t-69 30.5l-189 -186zM423 559q0 -67 47.5 -116t114.5 -49t114.5 48t47.5 117q0 68 -47.5 116.5t-114.5 48.5t-114.5 -48t-47.5 -117z" />
<glyph unicode="&#xa5;" horiz-adv-x="1259" d="M-12 1348v71h579v-71q-97 -4 -132 -14t-35 -34q0 -11 17 -46t59 -113t87.5 -159.5t124.5 -223.5q114 190 202.5 340t88.5 175q0 23 -15 37t-41 22q-27 8 -53 10.5t-60 5.5v71h472v-71q-17 -1 -54 -13.5t-53 -24.5q-39 -24 -53.5 -36.5t-53.5 -68.5 q-113 -168 -176.5 -277.5t-165.5 -284.5v-83h393v-96h-393v-257q0 -36 13 -62.5t45 -42.5q18 -8 66.5 -19t78.5 -12v-71h-610v71q24 2 74.5 7t70.5 14q29 13 43 38.5t14 66.5v267h-393v96h393v64q-87 176 -148 286t-150 268q-33 57 -58.5 86t-58.5 51q-24 15 -57.5 23 t-60.5 10z" />
<glyph unicode="&#xa6;" horiz-adv-x="768" d="M321 386h127v-810h-127v810zM321 723v800h127v-800h-127z" />
<glyph unicode="&#xa7;" horiz-adv-x="1024" d="M121 596q0 95 59 173t182 131q-107 51 -155.5 112.5t-48.5 148.5q0 62 26 114t79 93q49 39 127 62.5t170 23.5q90 0 149 -18.5t91 -44.5t45 -56.5t13 -54.5q0 -46 -26 -72.5t-73 -26.5q-32 0 -55 18t-40 45q-19 31 -30.5 60t-27.5 63q-14 4 -38 7t-45 3q-92 0 -151.5 -52 t-59.5 -127q0 -41 21 -71.5t60 -56.5q39 -27 106.5 -56.5t118.5 -50.5q149 -62 217 -143.5t68 -185.5q0 -100 -67 -186.5t-183 -129.5q110 -47 159 -113t49 -154q0 -65 -28 -122t-80 -98q-56 -43 -126 -66t-170 -23q-91 0 -147.5 17.5t-90.5 44.5t-47.5 56t-13.5 54 q0 44 25.5 72.5t73.5 28.5q34 0 57 -19t38 -44q16 -25 31 -61t27 -62q16 -4 34.5 -7t48.5 -3q91 0 153.5 55.5t62.5 125.5q0 61 -51.5 118.5t-227.5 124.5q-169 66 -239 151.5t-70 201.5zM274 636q0 -98 75.5 -162t232.5 -127q92 52 129 110.5t37 129.5q0 88 -77.5 156 t-224.5 119q-92 -38 -132 -95.5t-40 -130.5z" />
<glyph unicode="&#xa8;" horiz-adv-x="1024" d="M179 1364q0 51 34.5 87t83.5 36t83.5 -36t34.5 -87t-34.5 -87t-83.5 -36t-83.5 36t-34.5 87zM609 1364q0 51 34.5 87t83.5 36t83.5 -36t34.5 -87t-34.5 -87t-83.5 -36t-83.5 36t-34.5 87z" />
<glyph unicode="&#xa9;" horiz-adv-x="1929" d="M80 602q0 366 259 624.5t625 258.5t625.5 -258.5t259.5 -624.5t-259.5 -624.5t-625.5 -258.5t-625 258.5t-259 624.5zM179 602q0 -325 228.5 -560t556.5 -235t557 235t229 560t-229 560t-557 235t-556.5 -235t-228.5 -560zM492 592q0 105 38 196t108 160q67 66 164.5 105 t208.5 39q58 0 122.5 -20t96.5 -44l45 66h59l5 -363h-54q-20 60 -41.5 108.5t-59.5 91.5q-35 40 -86 64t-126 24q-120 0 -196.5 -111.5t-76.5 -305.5q0 -183 92.5 -289.5t231.5 -106.5q101 0 172 53.5t122 169.5l58 -25q-21 -52 -55.5 -106t-80.5 -93q-52 -44 -111 -69 t-146 -25q-107 0 -197.5 33t-156.5 97q-65 63 -100.5 152t-35.5 199z" />
<glyph unicode="&#xaa;" horiz-adv-x="1024" d="M156 813q0 51 14 90t38 68q24 26 55 41.5t64 28.5q70 28 162.5 56.5t145.5 56.5v55q0 10 -5.5 41t-19.5 56q-16 30 -48 52.5t-85 22.5q-33 0 -63.5 -12.5t-45.5 -27.5q2 -15 8.5 -45.5t6.5 -52.5q0 -29 -31 -50.5t-77 -21.5q-44 0 -62.5 30.5t-18.5 65.5q0 76 96 131 t197 55q67 0 122.5 -10.5t96.5 -38.5q43 -30 66.5 -80t23.5 -134q0 -116 -2.5 -200.5t-2.5 -191.5q0 -30 11.5 -49t35.5 -32q15 -8 41.5 -8.5t53.5 -0.5v-60q-39 -13 -71.5 -22t-70.5 -9q-65 0 -103.5 31.5t-49.5 88.5h-5q-55 -58 -120 -91t-149 -33q-89 0 -148.5 57 t-59.5 143zM331 850q0 -66 32 -97t85 -31q68 0 111 26.5t73 60.5l4 266q-77 -23 -124.5 -39.5t-94.5 -44.5q-40 -24 -63 -59t-23 -82z" />
<glyph unicode="&#xab;" horiz-adv-x="1190" d="M170 528q0 30 15.5 48t29.5 32l352 329l49 -41l-259 -367l259 -369l-49 -40l-355 332q-9 8 -25.5 27t-16.5 49zM551 528q0 30 16.5 49t28.5 31l352 329l49 -41l-259 -367l259 -369l-49 -40l-355 332q-9 8 -25.5 27t-16.5 49z" />
<glyph unicode="&#xac;" d="M144 527v125h1019v-576h-132v451h-887z" />
<glyph unicode="&#xad;" horiz-adv-x="766" d="M85 465v157h596v-157h-596z" />
<glyph unicode="&#xae;" horiz-adv-x="1929" d="M80 602q0 366 259 624.5t625 258.5t625.5 -258.5t259.5 -624.5t-259.5 -624.5t-625.5 -258.5t-625 258.5t-259 624.5zM179 602q0 -325 228.5 -560t556.5 -235t557 235t229 560t-229 560t-557 235t-556.5 -235t-228.5 -560zM544 145v58q18 2 49 6t46 10q22 9 31.5 26 t9.5 42v642q0 24 -7 41.5t-34 26.5q-21 7 -48 12.5t-47 7.5v58h492q56 0 110 -12t98 -38q43 -26 70 -68.5t27 -102.5q0 -109 -59.5 -171t-175.5 -94q81 -98 136.5 -166.5t99.5 -123.5q28 -35 55 -52t52 -25q20 -7 48 -12.5t45 -6.5v-58h-287q-95 134 -165 223.5t-143 180.5 h-105v-262q0 -22 8.5 -40.5t33.5 -27.5q11 -4 46 -9.5t53 -6.5v-58h-439zM842 625h87q104 0 165 55t61 154q0 83 -50 126t-147 43h-116v-378z" />
<glyph unicode="&#xaf;" d="M-5 1603v101h1327v-101h-1327z" />
<glyph unicode="&#xb0;" horiz-adv-x="859" d="M104 1128q0 141 93 233t232 92q143 0 234.5 -94t91.5 -231t-91.5 -231t-234.5 -94q-144 0 -234.5 95t-90.5 230zM252 1131q0 -117 47 -185t133 -68q67 0 121 61.5t54 180.5q0 125 -49 191.5t-130 66.5q-82 0 -129 -67t-47 -180z" />
<glyph unicode="&#xb1;" d="M149 0v125h446v402h-446v125h446v451h127v-451h446v-125h-446v-402h446v-125h-1019z" />
<glyph unicode="&#xb2;" horiz-adv-x="1024" d="M147 490v111q39 65 119 128t193 134q35 22 77.5 58.5t65.5 67.5q30 40 45.5 83.5t15.5 109.5q0 96 -49 146t-129 50q-57 0 -97.5 -19.5t-58.5 -45.5q6 -24 13.5 -54.5t7.5 -63.5q0 -31 -27.5 -54t-80.5 -23q-48 0 -68.5 31.5t-20.5 70.5q0 91 104.5 162t242.5 71 q157 0 256 -75.5t99 -202.5q0 -75 -22.5 -130.5t-59.5 -94.5q-39 -41 -87.5 -71t-100.5 -55q-64 -31 -155.5 -83t-150.5 -107h621v-144h-753z" />
<glyph unicode="&#xb3;" horiz-adv-x="1024" d="M127 655q0 45 23.5 72.5t60.5 27.5q52 0 79 -22.5t27 -49.5q0 -22 -7.5 -52t-13.5 -50q25 -21 70 -37t98 -16q101 0 162.5 57.5t61.5 169.5q0 35 -8.5 68.5t-30.5 57.5t-62.5 38t-102.5 14h-107v94h76q103 0 147.5 49t44.5 150q0 72 -41.5 113.5t-120.5 41.5 q-45 0 -82 -15t-60 -44q5 -17 12 -50.5t7 -56.5q0 -26 -28.5 -48.5t-78.5 -22.5q-46 0 -66.5 28.5t-20.5 64.5q0 37 22 73t69 70q40 30 111 51.5t148 21.5q93 0 157.5 -24t102.5 -62q36 -37 48.5 -75.5t12.5 -63.5q0 -30 -10.5 -65.5t-33.5 -63.5q-24 -29 -64.5 -55.5 t-105.5 -44.5v-9q41 -4 90 -20.5t82 -42.5q37 -27 61 -70.5t24 -105.5q0 -126 -115 -211t-307 -85q-135 0 -233 58t-98 142z" />
<glyph unicode="&#xb4;" horiz-adv-x="1024" d="M285 1142q90 133 125.5 187.5t76.5 120.5q31 51 60 69.5t67 18.5q36 0 59 -24.5t23 -53.5q0 -38 -17.5 -62t-51.5 -51q-50 -40 -130.5 -102t-173.5 -135z" />
<glyph unicode="&#xb5;" horiz-adv-x="1160" d="M121 -344q0 59 18 154t24 146q7 55 9.5 98.5t2.5 81.5v850h189v-677q0 -104 46.5 -160.5t117.5 -56.5q55 0 98.5 16t70.5 37q25 20 45 43t31 43v755h189v-784q0 -43 13 -68t43 -40q17 -9 49 -10t66 -1v-64q-47 -17 -83.5 -27.5t-81.5 -10.5q-77 0 -128.5 39t-64.5 115h-6 q-25 -26 -57.5 -58t-63.5 -50q-41 -24 -80 -36t-114 -12q-58 0 -111 24t-79 57h-6v-58q0 -68 26.5 -182t26.5 -162q0 -49 -31 -75.5t-68 -26.5q-40 0 -65.5 27t-25.5 73z" />
<glyph unicode="&#xb6;" horiz-adv-x="1024" d="M99 1059q0 162 107 261t277 99h517v-74h-111v-1561h-103v1561h-160v-1561h-103v922q-193 0 -308.5 92.5t-115.5 260.5z" />
<glyph unicode="&#xb7;" horiz-adv-x="572" d="M151 559q0 56 40.5 96.5t96.5 40.5t96.5 -40.5t40.5 -96.5t-40.5 -95.5t-96.5 -39.5t-96.5 39.5t-40.5 95.5z" />
<glyph unicode="&#xb8;" horiz-adv-x="1024" d="M307 -372q41 0 89 1t82 9q40 9 62 27.5t22 52.5q0 49 -55 62t-110 13v224h79v-116q45 0 81 -5.5t73 -24.5q34 -16 55 -45.5t21 -73.5q0 -58 -32 -98t-89 -62q-55 -20 -122 -28t-156 -8v72z" />
<glyph unicode="&#xb9;" horiz-adv-x="1024" d="M220 1272v78h62q78 0 146 28.5t102 66.5h73q-2 -45 -4.5 -119.5t-2.5 -117.5v-559q0 -23 11.5 -41t31.5 -27q19 -8 68.5 -14t81.5 -6v-71h-565v71q30 1 84 4.5t74 10.5t32.5 23t12.5 42v631h-207z" />
<glyph unicode="&#xba;" horiz-adv-x="1024" d="M116 1027q0 187 111 306.5t290 119.5q174 0 282.5 -116t108.5 -299q0 -185 -109 -308.5t-295 -123.5q-161 0 -274.5 118t-113.5 303zM300 1040q0 -75 12 -139t38 -113t66.5 -78.5t97.5 -29.5q54 0 94 28t65 77q24 47 37 111.5t13 139.5q0 63 -10.5 125t-34.5 110 q-25 49 -65 78.5t-98 29.5q-61 0 -103 -30.5t-67 -81.5q-25 -48 -35 -110.5t-10 -116.5z" />
<glyph unicode="&#xbb;" horiz-adv-x="1190" d="M193 160l259 369l-259 367l49 41l352 -329q10 -9 27.5 -30.5t17.5 -49.5q0 -32 -17 -50.5t-25 -25.5l-355 -332zM574 160l259 369l-259 367l49 41l352 -329q11 -10 28 -32.5t17 -47.5q0 -32 -17 -50.5t-25 -25.5l-355 -332z" />
<glyph unicode="&#xbc;" horiz-adv-x="2150" d="M131 1272v78h62q78 0 146 28.5t102 66.5h73q-2 -45 -4.5 -119.5t-2.5 -117.5v-559q0 -23 11.5 -41t31.5 -27q19 -8 68.5 -14t81.5 -6v-71h-565v71q30 1 84 4.5t74 10.5t32.5 23t12.5 42v631h-207zM573 0l737 1419h137l-739 -1419h-135zM1168 212v126l543 623h118v-640 h159v-109h-159v-232h-166v232h-495zM1270 321h393v453z" />
<glyph unicode="&#xbd;" horiz-adv-x="2150" d="M131 1272v78h62q78 0 146 28.5t102 66.5h73q-2 -45 -4.5 -119.5t-2.5 -117.5v-559q0 -23 11.5 -41t31.5 -27q19 -8 68.5 -14t81.5 -6v-71h-565v71q30 1 84 4.5t74 10.5t32.5 23t12.5 42v631h-207zM563 0l737 1419h137l-739 -1419h-135zM1291 0v111q39 65 119 128t193 134 q35 22 77.5 58.5t65.5 67.5q30 40 45.5 83.5t15.5 109.5q0 96 -49 146t-129 50q-57 0 -97.5 -19.5t-58.5 -45.5q6 -24 13.5 -54.5t7.5 -63.5q0 -31 -27.5 -54t-80.5 -23q-48 0 -68.5 31.5t-20.5 70.5q0 91 104.5 162t242.5 71q157 0 256 -75.5t99 -202.5q0 -75 -22.5 -130.5 t-59.5 -94.5q-39 -41 -87.5 -71t-100.5 -55q-64 -31 -155.5 -83t-150.5 -107h621v-144h-753z" />
<glyph unicode="&#xbe;" horiz-adv-x="2150" d="M117 655q0 45 23.5 72.5t60.5 27.5q52 0 79 -22.5t27 -49.5q0 -22 -7.5 -52t-13.5 -50q25 -21 70 -37t98 -16q101 0 162.5 57.5t61.5 169.5q0 35 -8.5 68.5t-30.5 57.5t-62.5 38t-102.5 14h-107v94h76q103 0 147.5 49t44.5 150q0 72 -41.5 113.5t-120.5 41.5 q-45 0 -82 -15t-60 -44q5 -17 12 -50.5t7 -56.5q0 -26 -28.5 -48.5t-78.5 -22.5q-46 0 -66.5 28.5t-20.5 64.5q0 37 22 73t69 70q40 30 111 51.5t148 21.5q93 0 157.5 -24t102.5 -62q36 -37 48.5 -75.5t12.5 -63.5q0 -30 -10.5 -65.5t-33.5 -63.5q-24 -29 -64.5 -55.5 t-105.5 -44.5v-9q41 -4 90 -20.5t82 -42.5q37 -27 61 -70.5t24 -105.5q0 -126 -115 -211t-307 -85q-135 0 -233 58t-98 142zM725 0l737 1419h137l-739 -1419h-135zM1258 212v126l543 623h118v-640h159v-109h-159v-232h-166v232h-495zM1360 321h393v453z" />
<glyph unicode="&#xbf;" horiz-adv-x="980" d="M101 385q0 185 118 302t324 141v221h92v-379q-63 -5 -125 -20.5t-111 -50.5q-51 -37 -79.5 -89.5t-28.5 -146.5q0 -150 63.5 -230t185.5 -80q46 0 80.5 13.5t50.5 25.5q-5 24 -13.5 69t-8.5 69q0 37 32 67.5t93 30.5q54 0 77 -37t23 -86q0 -40 -22 -78.5t-69 -74.5 q-41 -31 -109 -54.5t-142 -23.5q-106 0 -187.5 33t-135.5 90q-55 58 -81.5 130.5t-26.5 157.5zM449 1311q0 56 40.5 95.5t96.5 39.5t96.5 -39.5t40.5 -95.5t-40.5 -96.5t-96.5 -40.5t-96.5 40.5t-40.5 96.5z" />
<glyph unicode="&#xc0;" horiz-adv-x="1374" d="M-41 0v71q26 2 65 11.5t64 25.5q40 27 62 56.5t43 81.5q107 267 236 600t230 593h80l473 -1224q15 -39 34 -63t53 -47q23 -14 60 -23.5t62 -10.5v-71h-591v71q78 5 129.5 20t51.5 37q0 9 -2 22t-6 23l-118 318h-497q-28 -70 -45.5 -122t-31.5 -96q-13 -43 -18 -70t-5 -44 q0 -40 63 -62t142 -26v-71h-534zM423 580h426l-215 550zM470 1788q0 35 25 57.5t67 22.5q30 0 55.5 -13.5t59.5 -49.5q46 -48 103.5 -105.5t158.5 -153.5l-31 -39q-117 58 -209.5 102t-136.5 66q-49 25 -70.5 48.5t-21.5 64.5z" />
<glyph unicode="&#xc1;" horiz-adv-x="1374" d="M-41 0v71q26 2 65 11.5t64 25.5q40 27 62 56.5t43 81.5q107 267 236 600t230 593h80l473 -1224q15 -39 34 -63t53 -47q23 -14 60 -23.5t62 -10.5v-71h-591v71q78 5 129.5 20t51.5 37q0 9 -2 22t-6 23l-118 318h-497q-28 -70 -45.5 -122t-31.5 -96q-13 -43 -18 -70t-5 -44 q0 -40 63 -62t142 -26v-71h-534zM423 580h426l-215 550zM516 1546q91 87 148.5 143.5t113.5 115.5q32 34 58.5 48.5t56.5 14.5q38 0 65 -23t27 -57q0 -43 -26 -68t-66 -45q-44 -22 -136.5 -66.5t-209.5 -101.5z" />
<glyph unicode="&#xc2;" horiz-adv-x="1374" d="M-41 0v71q26 2 65 11.5t64 25.5q40 27 62 56.5t43 81.5q107 267 236 600t230 593h80l473 -1224q15 -39 34 -63t53 -47q23 -14 60 -23.5t62 -10.5v-71h-591v71q78 5 129.5 20t51.5 37q0 9 -2 22t-6 23l-118 318h-497q-28 -70 -45.5 -122t-31.5 -96q-13 -43 -18 -70t-5 -44 q0 -40 63 -62t142 -26v-71h-534zM376 1539l234 284q18 22 35.5 33.5t57.5 11.5q41 0 56.5 -11t30.5 -30l236 -288l-48 -32l-279 212l-275 -212zM423 580h426l-215 550z" />
<glyph unicode="&#xc3;" horiz-adv-x="1374" d="M-41 0v71q26 2 65 11.5t64 25.5q40 27 62 56.5t43 81.5q107 267 236 600t230 593h80l473 -1224q15 -39 34 -63t53 -47q23 -14 60 -23.5t62 -10.5v-71h-591v71q78 5 129.5 20t51.5 37q0 9 -2 22t-6 23l-118 318h-497q-28 -70 -45.5 -122t-31.5 -96q-13 -43 -18 -70t-5 -44 q0 -40 63 -62t142 -26v-71h-534zM323 1574q10 32 34 77t52 79q30 36 73 61.5t90 25.5q56 0 96.5 -16.5t74.5 -35.5q38 -21 64 -36t64 -15q40 0 64.5 9.5t38.5 26.5q16 19 26.5 41t25.5 57l61 -23q-10 -38 -30 -78t-55 -79q-36 -39 -75.5 -62.5t-94.5 -23.5q-57 0 -100 16.5 t-74 34.5q-35 20 -66.5 36t-69.5 16q-31 0 -46.5 -8t-32.5 -27q-16 -18 -32 -47.5t-30 -53.5zM423 580h426l-215 550z" />
<glyph unicode="&#xc4;" horiz-adv-x="1374" d="M-41 0v71q26 2 65 11.5t64 25.5q40 27 62 56.5t43 81.5q107 267 236 600t230 593h80l473 -1224q15 -39 34 -63t53 -47q23 -14 60 -23.5t62 -10.5v-71h-591v71q78 5 129.5 20t51.5 37q0 9 -2 22t-6 23l-118 318h-497q-28 -70 -45.5 -122t-31.5 -96q-13 -43 -18 -70t-5 -44 q0 -40 63 -62t142 -26v-71h-534zM352 1718q0 51 34.5 87t83.5 36t83.5 -36t34.5 -87t-34.5 -87t-83.5 -36t-83.5 36t-34.5 87zM423 580h426l-215 550zM802 1718q0 51 34.5 87t83.5 36t83.5 -36t34.5 -87t-34.5 -87t-83.5 -36t-83.5 36t-34.5 87z" />
<glyph unicode="&#xc5;" horiz-adv-x="1374" d="M-41 0v71q26 2 65.5 11.5t63.5 25.5q40 27 62 56.5t43 81.5q102 255 226.5 577t234.5 602q-101 12 -158 71.5t-57 149.5q0 98 75 160t183 62q112 0 185 -60.5t73 -161.5q0 -86 -58 -147t-153 -73l468 -1211q15 -39 34 -63t53 -47q22 -15 59.5 -24t62.5 -10v-71h-591v71 q78 5 129.5 20t51.5 37q0 9 -2 22t-6 23l-118 318h-497q-28 -70 -45.5 -122t-31.5 -96q-13 -42 -18 -69.5t-5 -44.5q0 -40 63 -62t142 -26v-71h-534zM423 580h426l-215 550zM565 1646q0 -69 34 -115t98 -46t98 45.5t34 115.5q0 68 -33.5 113t-98.5 45q-63 0 -97.5 -43 t-34.5 -115z" />
<glyph unicode="&#xc6;" horiz-adv-x="1988" d="M-97 0v71q28 2 66.5 13t63.5 25q35 20 65.5 55.5t55.5 79.5q154 265 303 529t309 553q-25 9 -77 14.5t-93 7.5v71h1238v-342h-75q-19 76 -86 161.5t-127 93.5q-31 4 -74 6t-98 2h-213v-564h150q76 0 112.5 14.5t62.5 48.5q22 29 37.5 77.5t20.5 91.5h75v-555h-75 q-4 48 -21.5 101.5t-36.5 77.5q-31 39 -70 51t-105 12h-150v-426q0 -64 9 -101t35 -56q27 -19 71.5 -24.5t127.5 -5.5h85.5t87.5 4q41 5 77.5 14.5t53.5 28.5q46 48 96.5 145.5t64.5 143.5h72l-27 -418h-1168v71q24 2 74.5 7.5t70.5 14.5q32 15 44.5 39t12.5 61v409h-480 q-43 -71 -80.5 -139.5t-98.5 -192.5q-13 -25 -22 -51t-9 -49q0 -45 42.5 -69.5t125.5 -29.5v-71h-523zM517 690h431v641h-77z" />
<glyph unicode="&#xc7;" horiz-adv-x="1315" d="M78 696q0 170 52 308.5t144 238.5q91 99 215 153t265 54q105 0 190 -26t162 -73l41 68h80l9 -506h-82q-16 74 -48 160.5t-75 146.5q-48 68 -114 106.5t-151 38.5q-97 0 -180.5 -43t-144.5 -127q-58 -81 -91 -206t-33 -279q0 -136 34.5 -249.5t98.5 -199.5 q64 -85 151.5 -133t195.5 -48q81 0 149 25.5t118 67.5q50 44 88 100t62 122l75 -36q-82 -204 -218.5 -294.5t-322.5 -96.5v-67q45 0 81 -5.5t73 -24.5q34 -16 55 -45.5t21 -73.5q0 -58 -32 -98t-89 -62q-55 -20 -122 -28t-156 -8v72q41 0 89 1t82 9q40 9 62 27.5t22 52.5 q0 24 -15 39.5t-40 23.5q-20 7 -53.5 9.5t-56.5 2.5v177q-111 9 -213.5 58t-182.5 133q-89 94 -142 229.5t-53 305.5z" />
<glyph unicode="&#xc8;" horiz-adv-x="1338" d="M86 0v71q30 2 80 8.5t65 13.5q32 15 44.5 39t12.5 61v1020q0 33 -11 58.5t-46 41.5q-27 13 -72.5 23t-72.5 12v71h1098v-342h-75q-20 76 -86.5 161.5t-126.5 93.5q-31 4 -74 6t-98 2h-223v-564h160q77 0 112.5 14.5t62.5 48.5q22 29 37.5 77.5t20.5 91.5h75v-555h-75 q-4 48 -21.5 101.5t-36.5 77.5q-31 39 -70.5 51t-104.5 12h-160v-426q0 -64 9 -101t35 -56t71 -24.5t128 -5.5h87t91 4q38 4 78.5 14.5t57.5 28.5q46 48 96.5 145.5t64.5 143.5h72l-27 -418h-1178zM377 1788q0 35 25 57.5t67 22.5q30 0 55.5 -13.5t59.5 -49.5 q46 -48 103.5 -105.5t158.5 -153.5l-31 -39q-117 58 -209.5 102t-136.5 66q-49 25 -70.5 48.5t-21.5 64.5z" />
<glyph unicode="&#xc9;" horiz-adv-x="1338" d="M86 0v71q30 2 80 8.5t65 13.5q32 15 44.5 39t12.5 61v1020q0 33 -11 58.5t-46 41.5q-27 13 -72.5 23t-72.5 12v71h1098v-342h-75q-20 76 -86.5 161.5t-126.5 93.5q-31 4 -74 6t-98 2h-223v-564h160q77 0 112.5 14.5t62.5 48.5q22 29 37.5 77.5t20.5 91.5h75v-555h-75 q-4 48 -21.5 101.5t-36.5 77.5q-31 39 -70.5 51t-104.5 12h-160v-426q0 -64 9 -101t35 -56t71 -24.5t128 -5.5h87t91 4q38 4 78.5 14.5t57.5 28.5q46 48 96.5 145.5t64.5 143.5h72l-27 -418h-1178zM494 1546q91 87 148.5 143.5t113.5 115.5q32 34 58.5 48.5t56.5 14.5 q38 0 65 -23t27 -57q0 -43 -26 -68t-66 -45q-44 -22 -136.5 -66.5t-209.5 -101.5z" />
<glyph unicode="&#xca;" horiz-adv-x="1338" d="M86 0v71q30 2 80 8.5t65 13.5q32 15 44.5 39t12.5 61v1020q0 33 -11 58.5t-46 41.5q-27 13 -72.5 23t-72.5 12v71h1098v-342h-75q-20 76 -86.5 161.5t-126.5 93.5q-31 4 -74 6t-98 2h-223v-564h160q77 0 112.5 14.5t62.5 48.5q22 29 37.5 77.5t20.5 91.5h75v-555h-75 q-4 48 -21.5 101.5t-36.5 77.5q-31 39 -70.5 51t-104.5 12h-160v-426q0 -64 9 -101t35 -56t71 -24.5t128 -5.5h87t91 4q38 4 78.5 14.5t57.5 28.5q46 48 96.5 145.5t64.5 143.5h72l-27 -418h-1178zM354 1539l234 284q18 22 35.5 33.5t57.5 11.5q41 0 56.5 -11t30.5 -30 l236 -288l-48 -32l-279 212l-275 -212z" />
<glyph unicode="&#xcb;" horiz-adv-x="1338" d="M86 0v71q30 2 80 8.5t65 13.5q32 15 44.5 39t12.5 61v1020q0 33 -11 58.5t-46 41.5q-27 13 -72.5 23t-72.5 12v71h1098v-342h-75q-20 76 -86.5 161.5t-126.5 93.5q-31 4 -74 6t-98 2h-223v-564h160q77 0 112.5 14.5t62.5 48.5q22 29 37.5 77.5t20.5 91.5h75v-555h-75 q-4 48 -21.5 101.5t-36.5 77.5q-31 39 -70.5 51t-104.5 12h-160v-426q0 -64 9 -101t35 -56t71 -24.5t128 -5.5h87t91 4q38 4 78.5 14.5t57.5 28.5q46 48 96.5 145.5t64.5 143.5h72l-27 -418h-1178zM345 1730q0 51 34.5 87t83.5 36t83.5 -36t34.5 -87t-34.5 -87t-83.5 -36 t-83.5 36t-34.5 87zM795 1730q0 51 34.5 87t83.5 36t83.5 -36t34.5 -87t-34.5 -87t-83.5 -36t-83.5 36t-34.5 87z" />
<glyph unicode="&#xcc;" horiz-adv-x="798" d="M79 0v71q27 2 78 6t72 12q33 13 48 35.5t15 62.5v1028q0 35 -11 58.5t-52 39.5q-30 12 -75.5 22.5t-74.5 12.5v71h639v-71q-31 -1 -74 -7.5t-75 -16.5q-38 -12 -51 -39t-13 -60v-1027q0 -33 14.5 -58.5t49.5 -40.5q21 -8 68.5 -17.5t80.5 -10.5v-71h-639zM205 1788 q0 35 25 57.5t67 22.5q30 0 55.5 -13.5t59.5 -49.5q46 -48 103.5 -105.5t158.5 -153.5l-31 -39q-117 58 -209.5 102t-136.5 66q-49 25 -70.5 48.5t-21.5 64.5z" />
<glyph unicode="&#xcd;" horiz-adv-x="798" d="M79 0v71q27 2 78 6t72 12q33 13 48 35.5t15 62.5v1028q0 35 -11 58.5t-52 39.5q-30 12 -75.5 22.5t-74.5 12.5v71h639v-71q-31 -1 -74 -7.5t-75 -16.5q-38 -12 -51 -39t-13 -60v-1027q0 -33 14.5 -58.5t49.5 -40.5q21 -8 68.5 -17.5t80.5 -10.5v-71h-639zM167 1546 q91 87 148.5 143.5t113.5 115.5q32 34 58.5 48.5t56.5 14.5q38 0 65 -23t27 -57q0 -43 -26 -68t-66 -45q-44 -22 -136.5 -66.5t-209.5 -101.5z" />
<glyph unicode="&#xce;" horiz-adv-x="798" d="M74 1539l234 284q18 22 35.5 33.5t57.5 11.5q41 0 56.5 -11t30.5 -30l236 -288l-48 -32l-279 212l-275 -212zM79 0v71q27 2 78 6t72 12q33 13 48 35.5t15 62.5v1028q0 35 -11 58.5t-52 39.5q-30 12 -75.5 22.5t-74.5 12.5v71h639v-71q-31 -1 -74 -7.5t-75 -16.5 q-38 -12 -51 -39t-13 -60v-1027q0 -33 14.5 -58.5t49.5 -40.5q21 -8 68.5 -17.5t80.5 -10.5v-71h-639z" />
<glyph unicode="&#xcf;" horiz-adv-x="798" d="M66 1730q0 51 34.5 87t83.5 36t83.5 -36t34.5 -87t-34.5 -87t-83.5 -36t-83.5 36t-34.5 87zM79 0v71q27 2 78 6t72 12q33 13 48 35.5t15 62.5v1028q0 35 -11 58.5t-52 39.5q-30 12 -75.5 22.5t-74.5 12.5v71h639v-71q-31 -1 -74 -7.5t-75 -16.5q-38 -12 -51 -39t-13 -60 v-1027q0 -33 14.5 -58.5t49.5 -40.5q21 -8 68.5 -17.5t80.5 -10.5v-71h-639zM496 1730q0 51 34.5 87t83.5 36t83.5 -36t34.5 -87t-34.5 -87t-83.5 -36t-83.5 36t-34.5 87z" />
<glyph unicode="&#xd0;" horiz-adv-x="1534" d="M94 0v71q29 0 75.5 5.5t61.5 12.5q30 13 43.5 38.5t13.5 61.5v512h-186v98h186v414q0 34 -11.5 61t-45.5 43q-31 15 -67 22t-62 9v71h620q128 0 252 -39.5t216 -106.5q125 -89 196 -233t71 -339q0 -181 -68 -314t-177 -218q-110 -85 -247 -127t-283 -42h-588zM501 243 q0 -91 53 -126t163 -35q127 0 222 45t154 125q62 84 90.5 194.5t28.5 255.5q0 143 -38 258.5t-111 201.5q-69 82 -169.5 129t-223.5 47q-41 0 -92.5 -1.5t-76.5 -2.5v-535h301v-98h-301v-458z" />
<glyph unicode="&#xd1;" horiz-adv-x="1571" d="M24 1348v71h405l798 -1082v675q0 124 -16 190.5t-46 88.5q-28 19 -91.5 37t-96.5 20v71h577v-71q-28 -1 -86 -16t-83 -31q-36 -25 -48.5 -96t-12.5 -180v-1039h-87l-860 1161v-732q0 -123 15.5 -189t47.5 -94q23 -22 95 -41t95 -20v-71h-582v71q27 2 91 19.5t80 31.5 q35 28 48 85.5t13 196.5v699q0 46 -16 92t-43 71q-36 33 -97.5 56.5t-99.5 25.5zM430 1584q10 32 34 77t52 79q30 36 73 61.5t90 25.5q56 0 96.5 -16.5t74.5 -35.5q38 -21 64 -36t64 -15q40 0 64.5 9.5t38.5 26.5q16 19 26.5 41t25.5 57l61 -23q-10 -38 -30 -78t-55 -79 q-36 -39 -75.5 -62.5t-94.5 -23.5q-57 0 -100 16.5t-74 34.5q-35 20 -66.5 36t-69.5 16q-31 0 -46.5 -8t-32.5 -27q-16 -18 -32 -47.5t-30 -53.5z" />
<glyph unicode="&#xd2;" horiz-adv-x="1524" d="M80 708q0 173 54 308.5t149 234.5q94 98 218.5 150t260.5 52q141 0 266 -53t216 -149q94 -98 147 -236.5t53 -306.5q0 -169 -54 -307t-150 -235q-93 -96 -216 -148t-262 -52q-148 0 -273.5 55.5t-215.5 154.5q-90 97 -141.5 235.5t-51.5 296.5zM322 708q0 -144 26 -260 t82 -206q54 -88 136 -137.5t196 -49.5q107 0 193 50t140 140q56 91 81.5 206t25.5 257q0 146 -28.5 268t-83.5 208q-55 85 -138 132.5t-190 47.5q-120 0 -204 -55t-137 -147q-50 -88 -74.5 -206t-24.5 -248zM562 1788q0 35 25 57.5t67 22.5q30 0 55.5 -13.5t59.5 -49.5 q46 -48 103.5 -105.5t158.5 -153.5l-31 -39q-117 58 -209.5 102t-136.5 66q-49 25 -70.5 48.5t-21.5 64.5z" />
<glyph unicode="&#xd3;" horiz-adv-x="1524" d="M80 708q0 173 54 308.5t149 234.5q94 98 218.5 150t260.5 52q141 0 266 -53t216 -149q94 -98 147 -236.5t53 -306.5q0 -169 -54 -307t-150 -235q-93 -96 -216 -148t-262 -52q-148 0 -273.5 55.5t-215.5 154.5q-90 97 -141.5 235.5t-51.5 296.5zM322 708q0 -144 26 -260 t82 -206q54 -88 136 -137.5t196 -49.5q107 0 193 50t140 140q56 91 81.5 206t25.5 257q0 146 -28.5 268t-83.5 208q-55 85 -138 132.5t-190 47.5q-120 0 -204 -55t-137 -147q-50 -88 -74.5 -206t-24.5 -248zM536 1546q91 87 148.5 143.5t113.5 115.5q32 34 58.5 48.5 t56.5 14.5q38 0 65 -23t27 -57q0 -43 -26 -68t-66 -45q-44 -22 -136.5 -66.5t-209.5 -101.5z" />
<glyph unicode="&#xd4;" horiz-adv-x="1524" d="M80 708q0 173 54 308.5t149 234.5q94 98 218.5 150t260.5 52q141 0 266 -53t216 -149q94 -98 147 -236.5t53 -306.5q0 -169 -54 -307t-150 -235q-93 -96 -216 -148t-262 -52q-148 0 -273.5 55.5t-215.5 154.5q-90 97 -141.5 235.5t-51.5 296.5zM322 708q0 -144 26 -260 t82 -206q54 -88 136 -137.5t196 -49.5q107 0 193 50t140 140q56 91 81.5 206t25.5 257q0 146 -28.5 268t-83.5 208q-55 85 -138 132.5t-190 47.5q-120 0 -204 -55t-137 -147q-50 -88 -74.5 -206t-24.5 -248zM437 1539l234 284q18 22 35.5 33.5t57.5 11.5q41 0 56.5 -11 t30.5 -30l236 -288l-48 -32l-279 212l-275 -212z" />
<glyph unicode="&#xd5;" horiz-adv-x="1524" d="M80 708q0 173 54 308.5t149 234.5q94 98 218.5 150t260.5 52q141 0 266 -53t216 -149q94 -98 147 -236.5t53 -306.5q0 -169 -54 -307t-150 -235q-93 -96 -216 -148t-262 -52q-148 0 -273.5 55.5t-215.5 154.5q-90 97 -141.5 235.5t-51.5 296.5zM322 708q0 -144 26 -260 t82 -206q54 -88 136 -137.5t196 -49.5q107 0 193 50t140 140q56 91 81.5 206t25.5 257q0 146 -28.5 268t-83.5 208q-55 85 -138 132.5t-190 47.5q-120 0 -204 -55t-137 -147q-50 -88 -74.5 -206t-24.5 -248zM380 1584q10 32 34 77t52 79q30 36 73 61.5t90 25.5 q56 0 96.5 -16.5t74.5 -35.5q38 -21 64 -36t64 -15q40 0 64.5 9.5t38.5 26.5q16 19 26.5 41t25.5 57l61 -23q-10 -38 -30 -78t-55 -79q-36 -39 -75.5 -62.5t-94.5 -23.5q-57 0 -100 16.5t-74 34.5q-35 20 -66.5 36t-69.5 16q-31 0 -46.5 -8t-32.5 -27q-16 -18 -32 -47.5 t-30 -53.5z" />
<glyph unicode="&#xd6;" horiz-adv-x="1524" d="M80 708q0 173 54 308.5t149 234.5q94 98 218.5 150t260.5 52q141 0 266 -53t216 -149q94 -98 147 -236.5t53 -306.5q0 -169 -54 -307t-150 -235q-93 -96 -216 -148t-262 -52q-148 0 -273.5 55.5t-215.5 154.5q-90 97 -141.5 235.5t-51.5 296.5zM322 708q0 -144 26 -260 t82 -206q54 -88 136 -137.5t196 -49.5q107 0 193 50t140 140q56 91 81.5 206t25.5 257q0 146 -28.5 268t-83.5 208q-55 85 -138 132.5t-190 47.5q-120 0 -204 -55t-137 -147q-50 -88 -74.5 -206t-24.5 -248zM419 1730q0 51 34.5 87t83.5 36t83.5 -36t34.5 -87t-34.5 -87 t-83.5 -36t-83.5 36t-34.5 87zM869 1730q0 51 34.5 87t83.5 36t83.5 -36t34.5 -87t-34.5 -87t-83.5 -36t-83.5 36t-34.5 87z" />
<glyph unicode="&#xd7;" d="M208 198l364 362l-364 361l89 88l361 -362l362 363l88 -88l-364 -362l364 -361l-89 -89l-361 363l-362 -364z" />
<glyph unicode="&#xd8;" horiz-adv-x="1524" d="M80 708q0 173 54 308.5t149 234.5q94 99 219 151t260 52q122 0 232.5 -41.5t200.5 -119.5l151 183l65 -52l-158 -188q88 -98 139.5 -230.5t51.5 -297.5q0 -171 -55.5 -309.5t-148.5 -233.5q-93 -96 -216 -148t-262 -52q-128 0 -238 43t-195 117l-174 -210l-64 50l181 215 q-90 99 -141 235.5t-51 292.5zM319 708q0 -116 16.5 -216t49.5 -177l713 861q-58 93 -142 141t-194 48q-119 0 -203 -53.5t-140 -149.5q-50 -86 -75 -205.5t-25 -248.5zM426 243q54 -88 138.5 -138.5t197.5 -50.5q109 0 194 48.5t142 141.5q55 92 81 207t26 257 q0 114 -16 214.5t-49 179.5z" />
<glyph unicode="&#xd9;" horiz-adv-x="1549" d="M74 1348v71h591v-71q-28 -1 -70.5 -9t-62.5 -15q-34 -12 -45.5 -40t-11.5 -61v-784q0 -57 12.5 -119.5t49.5 -116.5q39 -55 106 -90t184 -35q110 0 184.5 35t117.5 92q41 54 58 113t17 119v582q0 111 -16 181.5t-47 92.5q-35 25 -95.5 39t-92.5 16v71h580v-71 q-28 -1 -82 -12t-88 -33q-34 -23 -47 -95t-13 -176v-617q0 -118 -49 -205t-129 -143q-79 -54 -166.5 -77.5t-167.5 -23.5q-128 0 -228 33.5t-168 90.5q-67 57 -101 130.5t-34 153.5v839q0 35 -11.5 58.5t-46.5 43.5q-25 14 -64 22.5t-64 10.5zM552 1788q0 35 25 57.5 t67 22.5q30 0 55.5 -13.5t59.5 -49.5q46 -48 103.5 -105.5t158.5 -153.5l-31 -39q-117 58 -209.5 102t-136.5 66q-49 25 -70.5 48.5t-21.5 64.5z" />
<glyph unicode="&#xda;" horiz-adv-x="1549" d="M74 1348v71h591v-71q-28 -1 -70.5 -9t-62.5 -15q-34 -12 -45.5 -40t-11.5 -61v-784q0 -57 12.5 -119.5t49.5 -116.5q39 -55 106 -90t184 -35q110 0 184.5 35t117.5 92q41 54 58 113t17 119v582q0 111 -16 181.5t-47 92.5q-35 25 -95.5 39t-92.5 16v71h580v-71 q-28 -1 -82 -12t-88 -33q-34 -23 -47 -95t-13 -176v-617q0 -118 -49 -205t-129 -143q-79 -54 -166.5 -77.5t-167.5 -23.5q-128 0 -228 33.5t-168 90.5q-67 57 -101 130.5t-34 153.5v839q0 35 -11.5 58.5t-46.5 43.5q-25 14 -64 22.5t-64 10.5zM583 1546q91 87 148.5 143.5 t113.5 115.5q32 34 58.5 48.5t56.5 14.5q38 0 65 -23t27 -57q0 -43 -26 -68t-66 -45q-44 -22 -136.5 -66.5t-209.5 -101.5z" />
<glyph unicode="&#xdb;" horiz-adv-x="1549" d="M74 1348v71h591v-71q-28 -1 -70.5 -9t-62.5 -15q-34 -12 -45.5 -40t-11.5 -61v-784q0 -57 12.5 -119.5t49.5 -116.5q39 -55 106 -90t184 -35q110 0 184.5 35t117.5 92q41 54 58 113t17 119v582q0 111 -16 181.5t-47 92.5q-35 25 -95.5 39t-92.5 16v71h580v-71 q-28 -1 -82 -12t-88 -33q-34 -23 -47 -95t-13 -176v-617q0 -118 -49 -205t-129 -143q-79 -54 -166.5 -77.5t-167.5 -23.5q-128 0 -228 33.5t-168 90.5q-67 57 -101 130.5t-34 153.5v839q0 35 -11.5 58.5t-46.5 43.5q-25 14 -64 22.5t-64 10.5zM485 1539l234 284 q18 22 35.5 33.5t57.5 11.5q41 0 56.5 -11t30.5 -30l236 -288l-48 -32l-279 212l-275 -212z" />
<glyph unicode="&#xdc;" horiz-adv-x="1549" d="M74 1348v71h591v-71q-28 -1 -70.5 -9t-62.5 -15q-34 -12 -45.5 -40t-11.5 -61v-784q0 -57 12.5 -119.5t49.5 -116.5q39 -55 106 -90t184 -35q110 0 184.5 35t117.5 92q41 54 58 113t17 119v582q0 111 -16 181.5t-47 92.5q-35 25 -95.5 39t-92.5 16v71h580v-71 q-28 -1 -82 -12t-88 -33q-34 -23 -47 -95t-13 -176v-617q0 -118 -49 -205t-129 -143q-79 -54 -166.5 -77.5t-167.5 -23.5q-128 0 -228 33.5t-168 90.5q-67 57 -101 130.5t-34 153.5v839q0 35 -11.5 58.5t-46.5 43.5q-25 14 -64 22.5t-64 10.5zM472 1730q0 51 34.5 87 t83.5 36t83.5 -36t34.5 -87t-34.5 -87t-83.5 -36t-83.5 36t-34.5 87zM922 1730q0 51 34.5 87t83.5 36t83.5 -36t34.5 -87t-34.5 -87t-83.5 -36t-83.5 36t-34.5 87z" />
<glyph unicode="&#xdd;" horiz-adv-x="1260" d="M-44 1348v71h605v-71q-102 -2 -144 -14t-42 -34q0 -6 6 -21t17 -38q13 -26 31 -59.5t34 -64.5q47 -89 96 -177.5t128 -230.5q157 253 239.5 394.5t82.5 169.5q0 23 -17 37t-45 22q-29 8 -63 10.5t-63 5.5v71h493v-71q-17 -1 -54 -13.5t-53 -24.5q-39 -24 -53 -37t-54 -68 q-78 -110 -144 -223t-165 -287q-37 -64 -49 -103t-12 -113v-271q0 -36 14.5 -62.5t49.5 -42.5q21 -8 75 -19.5t87 -12.5v-71h-664v71q28 2 84 7.5t78 14.5q36 15 49.5 41t13.5 64v345q0 16 -19.5 58.5t-46.5 94.5q-60 116 -133 251t-127 231q-33 57 -58.5 86t-58.5 51 q-24 15 -57.5 23t-60.5 10zM494 1546q91 87 148.5 143.5t113.5 115.5q32 34 58.5 48.5t56.5 14.5q38 0 65 -23t27 -57q0 -43 -26 -68t-66 -45q-44 -22 -136.5 -66.5t-209.5 -101.5z" />
<glyph unicode="&#xde;" horiz-adv-x="1258" d="M96 1348v71h597v-71q-29 -1 -71.5 -9t-62.5 -15q-34 -12 -46 -38.5t-12 -60.5v-93h252q189 0 312.5 -103t123.5 -272q0 -114 -44 -197t-116 -135q-72 -51 -163.5 -76.5t-195.5 -25.5h-169v-130q0 -35 11 -61.5t47 -40.5q18 -7 62.5 -13t82.5 -7v-71h-606v71q24 2 69.5 7 t63.5 13q30 13 43.5 38t13.5 64v1022q0 33 -11 58t-46 40q-29 13 -67.5 23t-67.5 12zM501 411h109q108 0 175 34t101 84t44.5 102t10.5 94q0 58 -14 118t-48 105q-37 48 -94.5 74.5t-142.5 26.5h-141v-638z" />
<glyph unicode="&#xdf;" horiz-adv-x="1123" d="M59 0v66q21 2 47 4.5t43 8.5q25 9 37 32.5t12 61.5v833q0 137 21 232.5t103 183.5q67 72 146 100t155 28q71 0 129.5 -16.5t110.5 -55.5q49 -37 78 -93t29 -139q0 -75 -27.5 -131.5t-67.5 -92.5t-86.5 -57t-85.5 -25v-9q53 -11 113.5 -42t111.5 -83q50 -52 83 -128.5 t33 -179.5q0 -225 -125 -367t-309 -142q-32 0 -65 3t-56 8v81q23 -5 46 -7.5t43 -2.5q69 0 120 34t79 91q30 59 44 134.5t14 173.5q0 173 -74.5 280t-211.5 107h-20v85h36q39 0 80.5 15t74.5 46q35 34 55.5 84t20.5 119q0 113 -50 173.5t-133 60.5q-117 0 -172.5 -107.5 t-55.5 -306.5v-1060h-326z" />
<glyph unicode="&#xe0;" horiz-adv-x="1032" d="M80 221q0 57 16 102t48 81q25 30 66 53.5t77 37.5q45 17 182.5 63t185.5 72v99q0 13 -5.5 50t-23.5 70q-20 37 -56.5 64.5t-103.5 27.5q-46 0 -85.5 -15.5t-55.5 -32.5q0 -20 9.5 -59t9.5 -72q0 -35 -31.5 -64t-87.5 -29q-50 0 -73.5 35.5t-23.5 79.5q0 46 32.5 88 t84.5 75q45 28 109 47.5t125 19.5q84 0 146.5 -11.5t113.5 -49.5q51 -37 77.5 -100.5t26.5 -163.5q0 -143 -3 -253.5t-3 -241.5q0 -39 13.5 -62t41.5 -39q15 -9 47.5 -10t66.5 -1v-64q-47 -17 -82.5 -27.5t-80.5 -10.5q-78 0 -124.5 36.5t-59.5 106.5h-6 q-65 -72 -139.5 -110t-179.5 -38q-111 0 -182.5 68t-71.5 178zM281 246q0 -83 43.5 -122t110.5 -39q71 0 125 34.5t91 81.5l6 345q-85 -25 -149 -49t-119 -60q-50 -34 -79 -80.5t-29 -110.5zM283 1460q0 29 23 53.5t59 24.5q39 0 67 -18t60 -70q34 -55 80 -125.5t122 -182.5 l-38 -32q-103 82 -184 143.5t-120 93.5q-38 32 -53.5 52t-15.5 61z" />
<glyph unicode="&#xe1;" horiz-adv-x="1032" d="M80 221q0 57 16 102t48 81q25 30 66 53.5t77 37.5q45 17 182.5 63t185.5 72v99q0 13 -5.5 50t-23.5 70q-20 37 -56.5 64.5t-103.5 27.5q-46 0 -85.5 -15.5t-55.5 -32.5q0 -20 9.5 -59t9.5 -72q0 -35 -31.5 -64t-87.5 -29q-50 0 -73.5 35.5t-23.5 79.5q0 46 32.5 88 t84.5 75q45 28 109 47.5t125 19.5q84 0 146.5 -11.5t113.5 -49.5q51 -37 77.5 -100.5t26.5 -163.5q0 -143 -3 -253.5t-3 -241.5q0 -39 13.5 -62t41.5 -39q15 -9 47.5 -10t66.5 -1v-64q-47 -17 -82.5 -27.5t-80.5 -10.5q-78 0 -124.5 36.5t-59.5 106.5h-6 q-65 -72 -139.5 -110t-179.5 -38q-111 0 -182.5 68t-71.5 178zM281 246q0 -83 43.5 -122t110.5 -39q71 0 125 34.5t91 81.5l6 345q-85 -25 -149 -49t-119 -60q-50 -34 -79 -80.5t-29 -110.5zM327 1142q90 133 125.5 187.5t76.5 120.5q31 51 60 69.5t67 18.5q36 0 59 -24.5 t23 -53.5q0 -38 -17.5 -62t-51.5 -51q-50 -40 -130.5 -102t-173.5 -135z" />
<glyph unicode="&#xe2;" horiz-adv-x="1032" d="M80 221q0 57 16 102t48 81q25 30 66 53.5t77 37.5q45 17 182.5 63t185.5 72v99q0 13 -5.5 50t-23.5 70q-20 37 -56.5 64.5t-103.5 27.5q-46 0 -85.5 -15.5t-55.5 -32.5q0 -20 9.5 -59t9.5 -72q0 -35 -31.5 -64t-87.5 -29q-50 0 -73.5 35.5t-23.5 79.5q0 46 32.5 88 t84.5 75q45 28 109 47.5t125 19.5q84 0 146.5 -11.5t113.5 -49.5q51 -37 77.5 -100.5t26.5 -163.5q0 -143 -3 -253.5t-3 -241.5q0 -39 13.5 -62t41.5 -39q15 -9 47.5 -10t66.5 -1v-64q-47 -17 -82.5 -27.5t-80.5 -10.5q-78 0 -124.5 36.5t-59.5 106.5h-6 q-65 -72 -139.5 -110t-179.5 -38q-111 0 -182.5 68t-71.5 178zM167 1156l237 347q17 25 32.5 35t57.5 10q40 0 55 -10.5t29 -30.5l239 -351l-48 -32l-279 273l-275 -273zM281 246q0 -83 43.5 -122t110.5 -39q71 0 125 34.5t91 81.5l6 345q-85 -25 -149 -49t-119 -60 q-50 -34 -79 -80.5t-29 -110.5z" />
<glyph unicode="&#xe3;" horiz-adv-x="1032" d="M80 221q0 57 16 102t48 81q25 30 66 53.5t77 37.5q45 17 182.5 63t185.5 72v99q0 13 -5.5 50t-23.5 70q-20 37 -56.5 64.5t-103.5 27.5q-46 0 -85.5 -15.5t-55.5 -32.5q0 -20 9.5 -59t9.5 -72q0 -35 -31.5 -64t-87.5 -29q-50 0 -73.5 35.5t-23.5 79.5q0 46 32.5 88 t84.5 75q45 28 109 47.5t125 19.5q84 0 146.5 -11.5t113.5 -49.5q51 -37 77.5 -100.5t26.5 -163.5q0 -143 -3 -253.5t-3 -241.5q0 -39 13.5 -62t41.5 -39q15 -9 47.5 -10t66.5 -1v-64q-47 -17 -82.5 -27.5t-80.5 -10.5q-78 0 -124.5 36.5t-59.5 106.5h-6 q-65 -72 -139.5 -110t-179.5 -38q-111 0 -182.5 68t-71.5 178zM124 1216q10 32 34 77t52 79q30 36 73 61.5t90 25.5q56 0 96.5 -16.5t74.5 -35.5q38 -21 64 -36t64 -15q40 0 64.5 9.5t38.5 26.5q16 19 26.5 41t25.5 57l61 -23q-10 -38 -30 -78t-55 -79q-36 -39 -75.5 -62.5 t-94.5 -23.5q-57 0 -100 16.5t-74 34.5q-35 20 -66.5 36t-69.5 16q-31 0 -46.5 -8t-32.5 -27q-16 -18 -32 -47.5t-30 -53.5zM281 246q0 -83 43.5 -122t110.5 -39q71 0 125 34.5t91 81.5l6 345q-85 -25 -149 -49t-119 -60q-50 -34 -79 -80.5t-29 -110.5z" />
<glyph unicode="&#xe4;" horiz-adv-x="1032" d="M80 221q0 57 16 102t48 81q25 30 66 53.5t77 37.5q45 17 182.5 63t185.5 72v99q0 13 -5.5 50t-23.5 70q-20 37 -56.5 64.5t-103.5 27.5q-46 0 -85.5 -15.5t-55.5 -32.5q0 -20 9.5 -59t9.5 -72q0 -35 -31.5 -64t-87.5 -29q-50 0 -73.5 35.5t-23.5 79.5q0 46 32.5 88 t84.5 75q45 28 109 47.5t125 19.5q84 0 146.5 -11.5t113.5 -49.5q51 -37 77.5 -100.5t26.5 -163.5q0 -143 -3 -253.5t-3 -241.5q0 -39 13.5 -62t41.5 -39q15 -9 47.5 -10t66.5 -1v-64q-47 -17 -82.5 -27.5t-80.5 -10.5q-78 0 -124.5 36.5t-59.5 106.5h-6 q-65 -72 -139.5 -110t-179.5 -38q-111 0 -182.5 68t-71.5 178zM160 1364q0 51 34.5 87t83.5 36t83.5 -36t34.5 -87t-34.5 -87t-83.5 -36t-83.5 36t-34.5 87zM281 246q0 -83 43.5 -122t110.5 -39q71 0 125 34.5t91 81.5l6 345q-85 -25 -149 -49t-119 -60q-50 -34 -79 -80.5 t-29 -110.5zM590 1364q0 51 34.5 87t83.5 36t83.5 -36t34.5 -87t-34.5 -87t-83.5 -36t-83.5 36t-34.5 87z" />
<glyph unicode="&#xe5;" horiz-adv-x="1032" d="M80 221q0 57 16 102t48 81q25 30 66 53.5t77 37.5q45 17 182.5 63t185.5 72v99q0 13 -5.5 50t-23.5 70q-20 37 -56.5 64.5t-103.5 27.5q-46 0 -85.5 -15.5t-55.5 -32.5q0 -20 9.5 -59t9.5 -72q0 -35 -31.5 -64t-87.5 -29q-50 0 -73.5 35.5t-23.5 79.5q0 46 32.5 88 t84.5 75q45 28 109 47.5t125 19.5q84 0 146.5 -11.5t113.5 -49.5q51 -37 77.5 -100.5t26.5 -163.5q0 -143 -3 -253.5t-3 -241.5q0 -39 13.5 -62t41.5 -39q15 -9 47.5 -10t66.5 -1v-64q-47 -17 -82.5 -27.5t-80.5 -10.5q-78 0 -124.5 36.5t-59.5 106.5h-6 q-65 -72 -139.5 -110t-179.5 -38q-111 0 -182.5 68t-71.5 178zM235 1337q0 98 75 160t183 62q112 0 185 -60.5t73 -161.5q0 -98 -71 -160.5t-187 -62.5q-117 0 -187.5 61t-70.5 162zM281 246q0 -83 43.5 -122t110.5 -39q71 0 125 34.5t91 81.5l6 345q-85 -25 -149 -49 t-119 -60q-50 -34 -79 -80.5t-29 -110.5zM361 1337q0 -69 34 -114t98 -45t98 44t34 115q0 68 -33.5 113t-98.5 45q-63 0 -97.5 -43t-34.5 -115z" />
<glyph unicode="&#xe6;" horiz-adv-x="1509" d="M81 220q0 61 17 107.5t46 81.5q28 33 64.5 55t74.5 38q138 55 214 77t145 43v107q0 14 -5.5 49t-23.5 72q-18 36 -52.5 63.5t-92.5 27.5q-50 0 -89.5 -15.5t-55.5 -32.5q0 -20 9.5 -59t9.5 -72q0 -35 -31.5 -64t-87.5 -29q-50 0 -73.5 35.5t-23.5 79.5q0 48 32 88.5 t83 73.5q46 30 111.5 49t119.5 19q100 0 181 -25t130 -96q51 53 125.5 87t154.5 34q104 0 176 -33.5t116 -88.5q46 -56 67 -128.5t21 -156.5v-58h-618q0 -228 74.5 -346.5t231.5 -118.5q104 0 164 51.5t103 140.5l70 -43q-58 -123 -159.5 -191t-224.5 -68q-127 0 -215 45.5 t-157 142.5h-6q-77 -100 -163.5 -144t-203.5 -44q-113 0 -185.5 66.5t-72.5 179.5zM281 248q0 -83 39.5 -122.5t104.5 -39.5q76 0 130 32.5t89 75.5v343q-80 -16 -141 -37t-115 -58q-51 -35 -79 -83t-28 -111zM825 631h421q0 40 -8 102t-25 100q-21 46 -59.5 76t-102.5 30 q-100 0 -162.5 -90.5t-63.5 -217.5z" />
<glyph unicode="&#xe7;" horiz-adv-x="930" d="M72 497q0 104 32.5 194.5t94.5 164.5q59 71 148 114.5t194 43.5q145 0 236 -69.5t91 -189.5q0 -50 -24 -88.5t-79 -38.5q-59 0 -91.5 30t-32.5 67q0 45 12 92.5t14 69.5q-18 31 -53.5 41.5t-76.5 10.5q-48 0 -91.5 -20.5t-84.5 -75.5q-37 -50 -60 -135t-23 -203 q0 -186 82.5 -303.5t216.5 -117.5q97 0 162.5 47t121.5 141l64 -42q-64 -115 -169.5 -184t-217.5 -72v-73q45 0 81 -5.5t73 -24.5q34 -16 55 -45.5t21 -73.5q0 -58 -32 -98t-89 -62q-55 -20 -122 -28t-156 -8v72q41 0 89 1t82 9q40 9 62 27.5t22 52.5q0 24 -15 39.5 t-40 23.5q-20 7 -53.5 9.5t-56.5 2.5v185q-182 23 -284.5 162t-102.5 357z" />
<glyph unicode="&#xe8;" horiz-adv-x="990" d="M72 501q0 96 30.5 188.5t89.5 166.5q57 71 141.5 114.5t189.5 43.5q108 0 185 -34t125 -93q46 -56 68.5 -132t22.5 -165v-66h-653q0 -97 18.5 -176t58.5 -139q39 -58 102 -91.5t150 -33.5q89 0 153.5 41.5t124.5 149.5l70 -43q-62 -118 -166 -188t-239 -70 q-119 0 -208.5 42t-147.5 114t-86.5 168t-28.5 203zM271 608h456q0 56 -9.5 120t-30.5 107q-23 46 -63 75t-103 29q-105 0 -174.5 -87.5t-75.5 -243.5zM284 1460q0 29 23 53.5t59 24.5q39 0 67 -18t60 -70q34 -55 80 -125.5t122 -182.5l-38 -32q-103 82 -184 143.5 t-120 93.5q-38 32 -53.5 52t-15.5 61z" />
<glyph unicode="&#xe9;" horiz-adv-x="990" d="M72 501q0 96 30.5 188.5t89.5 166.5q57 71 141.5 114.5t189.5 43.5q108 0 185 -34t125 -93q46 -56 68.5 -132t22.5 -165v-66h-653q0 -97 18.5 -176t58.5 -139q39 -58 102 -91.5t150 -33.5q89 0 153.5 41.5t124.5 149.5l70 -43q-62 -118 -166 -188t-239 -70 q-119 0 -208.5 42t-147.5 114t-86.5 168t-28.5 203zM271 608h456q0 56 -9.5 120t-30.5 107q-23 46 -63 75t-103 29q-105 0 -174.5 -87.5t-75.5 -243.5zM352 1142q90 133 125.5 187.5t76.5 120.5q31 51 60 69.5t67 18.5q36 0 59 -24.5t23 -53.5q0 -38 -17.5 -62t-51.5 -51 q-50 -40 -130.5 -102t-173.5 -135z" />
<glyph unicode="&#xea;" horiz-adv-x="990" d="M72 501q0 96 30.5 188.5t89.5 166.5q57 71 141.5 114.5t189.5 43.5q108 0 185 -34t125 -93q46 -56 68.5 -132t22.5 -165v-66h-653q0 -97 18.5 -176t58.5 -139q39 -58 102 -91.5t150 -33.5q89 0 153.5 41.5t124.5 149.5l70 -43q-62 -118 -166 -188t-239 -70 q-119 0 -208.5 42t-147.5 114t-86.5 168t-28.5 203zM197 1150l237 347q17 25 32.5 35t57.5 10q40 0 55 -10.5t29 -30.5l239 -351l-48 -32l-279 273l-275 -273zM271 608h456q0 56 -9.5 120t-30.5 107q-23 46 -63 75t-103 29q-105 0 -174.5 -87.5t-75.5 -243.5z" />
<glyph unicode="&#xeb;" horiz-adv-x="990" d="M72 501q0 96 30.5 188.5t89.5 166.5q57 71 141.5 114.5t189.5 43.5q108 0 185 -34t125 -93q46 -56 68.5 -132t22.5 -165v-66h-653q0 -97 18.5 -176t58.5 -139q39 -58 102 -91.5t150 -33.5q89 0 153.5 41.5t124.5 149.5l70 -43q-62 -118 -166 -188t-239 -70 q-119 0 -208.5 42t-147.5 114t-86.5 168t-28.5 203zM196 1364q0 51 34.5 87t83.5 36t83.5 -36t34.5 -87t-34.5 -87t-83.5 -36t-83.5 36t-34.5 87zM271 608h456q0 56 -9.5 120t-30.5 107q-23 46 -63 75t-103 29q-105 0 -174.5 -87.5t-75.5 -243.5zM626 1364q0 51 34.5 87 t83.5 36t83.5 -36t34.5 -87t-34.5 -87t-83.5 -36t-83.5 36t-34.5 87z" />
<glyph unicode="&#xec;" horiz-adv-x="600" d="M41 1460q0 29 23 53.5t59 24.5q39 0 67 -18t60 -70q34 -55 80 -125.5t122 -182.5l-38 -32q-103 82 -184 143.5t-120 93.5q-38 32 -53.5 52t-15.5 61zM43 911v65l348 22l14 -14v-804q0 -35 13.5 -58t42.5 -34q22 -9 43 -14.5t47 -7.5v-66h-477v66q23 2 47.5 4t42.5 8 q28 9 41.5 31.5t13.5 58.5v609q0 32 -14.5 58.5t-40.5 44.5q-19 12 -55 20.5t-66 10.5z" />
<glyph unicode="&#xed;" horiz-adv-x="600" d="M43 911v65l348 22l14 -14v-804q0 -35 13.5 -58t42.5 -34q22 -9 43 -14.5t47 -7.5v-66h-477v66q23 2 47.5 4t42.5 8q28 9 41.5 31.5t13.5 58.5v609q0 32 -14.5 58.5t-40.5 44.5q-19 12 -55 20.5t-66 10.5zM100 1142q90 133 125.5 187.5t76.5 120.5q31 51 60 69.5t67 18.5 q36 0 59 -24.5t23 -53.5q0 -38 -17.5 -62t-51.5 -51q-50 -40 -130.5 -102t-173.5 -135z" />
<glyph unicode="&#xee;" horiz-adv-x="600" d="M-20 1150l202 343q11 20 30 34.5t60 14.5q44 0 60.5 -16t23.5 -29l204 -347l-48 -29l-244 270l-240 -270zM43 911v65l348 22l14 -14v-804q0 -35 13.5 -58t42.5 -34q22 -9 43 -14.5t47 -7.5v-66h-477v66q23 2 47.5 4t42.5 8q28 9 41.5 31.5t13.5 58.5v609q0 32 -14.5 58.5 t-40.5 44.5q-19 12 -55 20.5t-66 10.5z" />
<glyph unicode="&#xef;" horiz-adv-x="600" d="M-14 1364q0 51 33 87t82 36t82 -36t33 -87t-33 -87t-82 -36t-82 36t-33 87zM43 911v65l348 22l14 -14v-804q0 -35 13.5 -58t42.5 -34q22 -9 43 -14.5t47 -7.5v-66h-477v66q23 2 47.5 4t42.5 8q28 9 41.5 31.5t13.5 58.5v609q0 32 -14.5 58.5t-40.5 44.5q-19 12 -55 20.5 t-66 10.5zM336 1364q0 51 33 87t82 36t82 -36t33 -87t-33 -87t-82 -36t-82 36t-33 87z" />
<glyph unicode="&#xf0;" horiz-adv-x="1089" d="M70 486q0 221 127 360t327 139q94 0 165.5 -42.5t105.5 -96.5l8 2q-15 128 -64.5 238t-109.5 197l-231 -138l-50 78l228 131q-31 40 -75.5 77.5t-90.5 68.5l50 56q46 -23 110 -67t103 -81l203 123l51 -78l-190 -110q137 -146 207 -323t70 -409q0 -294 -128 -468 t-354 -174q-89 0 -171.5 33.5t-148.5 100.5q-65 66 -103.5 163t-38.5 220zM277 499q0 -228 70 -341t196 -113q71 0 122 40t81 105q30 63 44.5 146t14.5 176q0 177 -70 285.5t-190 108.5q-77 0 -128.5 -35.5t-83.5 -93.5q-28 -51 -42 -126t-14 -152z" />
<glyph unicode="&#xf1;" horiz-adv-x="1210" d="M61 911v65l328 22l14 -14v-139h5q24 24 60 57.5t68 54.5q37 24 88 40t115 16q142 0 210.5 -88.5t68.5 -235.5v-513q0 -35 12 -56.5t41 -33.5q24 -10 41.5 -14t48.5 -6v-66h-483v66q23 2 50.5 4t45.5 8q28 9 41.5 31.5t13.5 58.5v507q0 105 -49.5 162t-120.5 57 q-53 0 -97 -16.5t-78 -40.5q-33 -23 -52.5 -49.5t-28.5 -42.5v-567q0 -34 14 -56t42 -34q21 -10 45.5 -15t50.5 -7v-66h-483v66q23 2 47.5 4t42.5 8q28 9 41.5 31.5t13.5 58.5v609q0 34 -14.5 62.5t-40.5 46.5q-19 12 -45 17.5t-56 7.5zM222 1216q10 32 34 77t52 79 q30 36 73 61.5t90 25.5q56 0 96.5 -16.5t74.5 -35.5q38 -21 64 -36t64 -15q40 0 64.5 9.5t38.5 26.5q16 19 26.5 41t25.5 57l61 -23q-10 -38 -30 -78t-55 -79q-36 -39 -75.5 -62.5t-94.5 -23.5q-57 0 -100 16.5t-74 34.5q-35 20 -66.5 36t-69.5 16q-31 0 -46.5 -8t-32.5 -27 q-16 -18 -32 -47.5t-30 -53.5z" />
<glyph unicode="&#xf2;" horiz-adv-x="1104" d="M70 489q0 231 134.5 378t352.5 147q207 0 341.5 -139.5t134.5 -371.5q0 -104 -33 -204.5t-94 -170.5q-69 -80 -160 -119t-204 -39q-94 0 -179 35.5t-151 103.5q-65 67 -103.5 163.5t-38.5 216.5zM277 506q0 -96 15.5 -177.5t49.5 -145.5t85.5 -100.5t127.5 -36.5 q125 0 198 121t73 334q0 75 -15 158.5t-45 141.5q-32 62 -84 99.5t-127 37.5q-77 0 -131.5 -38t-88.5 -104q-32 -61 -45 -139t-13 -151zM375 1460q0 29 23 53.5t59 24.5q39 0 67 -18t60 -70q34 -55 80 -125.5t122 -182.5l-38 -32q-103 82 -184 143.5t-120 93.5 q-38 32 -53.5 52t-15.5 61z" />
<glyph unicode="&#xf3;" horiz-adv-x="1104" d="M70 489q0 231 134.5 378t352.5 147q207 0 341.5 -139.5t134.5 -371.5q0 -104 -33 -204.5t-94 -170.5q-69 -80 -160 -119t-204 -39q-94 0 -179 35.5t-151 103.5q-65 67 -103.5 163.5t-38.5 216.5zM277 506q0 -96 15.5 -177.5t49.5 -145.5t85.5 -100.5t127.5 -36.5 q125 0 198 121t73 334q0 75 -15 158.5t-45 141.5q-32 62 -84 99.5t-127 37.5q-77 0 -131.5 -38t-88.5 -104q-32 -61 -45 -139t-13 -151zM332 1142q90 133 125.5 187.5t76.5 120.5q31 51 60 69.5t67 18.5q36 0 59 -24.5t23 -53.5q0 -38 -17.5 -62t-51.5 -51 q-50 -40 -130.5 -102t-173.5 -135z" />
<glyph unicode="&#xf4;" horiz-adv-x="1104" d="M70 489q0 231 134.5 378t352.5 147q207 0 341.5 -139.5t134.5 -371.5q0 -104 -33 -204.5t-94 -170.5q-69 -80 -160 -119t-204 -39q-94 0 -179 35.5t-151 103.5q-65 67 -103.5 163.5t-38.5 216.5zM234 1150l237 347q17 25 32.5 35t57.5 10q40 0 55 -10.5t29 -30.5 l239 -351l-48 -32l-279 273l-275 -273zM277 506q0 -96 15.5 -177.5t49.5 -145.5t85.5 -100.5t127.5 -36.5q125 0 198 121t73 334q0 75 -15 158.5t-45 141.5q-32 62 -84 99.5t-127 37.5q-77 0 -131.5 -38t-88.5 -104q-32 -61 -45 -139t-13 -151z" />
<glyph unicode="&#xf5;" horiz-adv-x="1104" d="M70 489q0 231 134.5 378t352.5 147q207 0 341.5 -139.5t134.5 -371.5q0 -104 -33 -204.5t-94 -170.5q-69 -80 -160 -119t-204 -39q-94 0 -179 35.5t-151 103.5q-65 67 -103.5 163.5t-38.5 216.5zM177 1216q10 32 34 77t52 79q30 36 73 61.5t90 25.5q56 0 96.5 -16.5 t74.5 -35.5q38 -21 64 -36t64 -15q40 0 64.5 9.5t38.5 26.5q16 19 26.5 41t25.5 57l61 -23q-10 -38 -30 -78t-55 -79q-36 -39 -75.5 -62.5t-94.5 -23.5q-57 0 -100 16.5t-74 34.5q-35 20 -66.5 36t-69.5 16q-31 0 -46.5 -8t-32.5 -27q-16 -18 -32 -47.5t-30 -53.5zM277 506 q0 -96 15.5 -177.5t49.5 -145.5t85.5 -100.5t127.5 -36.5q125 0 198 121t73 334q0 75 -15 158.5t-45 141.5q-32 62 -84 99.5t-127 37.5q-77 0 -131.5 -38t-88.5 -104q-32 -61 -45 -139t-13 -151z" />
<glyph unicode="&#xf6;" horiz-adv-x="1104" d="M70 489q0 231 134.5 378t352.5 147q207 0 341.5 -139.5t134.5 -371.5q0 -104 -33 -204.5t-94 -170.5q-69 -80 -160 -119t-204 -39q-94 0 -179 35.5t-151 103.5q-65 67 -103.5 163.5t-38.5 216.5zM226 1364q0 51 34.5 87t83.5 36t83.5 -36t34.5 -87t-34.5 -87t-83.5 -36 t-83.5 36t-34.5 87zM277 506q0 -96 15.5 -177.5t49.5 -145.5t85.5 -100.5t127.5 -36.5q125 0 198 121t73 334q0 75 -15 158.5t-45 141.5q-32 62 -84 99.5t-127 37.5q-77 0 -131.5 -38t-88.5 -104q-32 -61 -45 -139t-13 -151zM656 1364q0 51 34.5 87t83.5 36t83.5 -36 t34.5 -87t-34.5 -87t-83.5 -36t-83.5 36t-34.5 87z" />
<glyph unicode="&#xf7;" d="M144 497v125h1029v-125h-1029zM530 153q0 53 38 91t91 38t91 -38t38 -91t-38 -90t-91 -37t-91 37t-38 90zM530 966q0 53 38 90t91 37t91 -37t38 -90t-38 -91t-91 -38t-91 38t-38 91z" />
<glyph unicode="&#xf8;" horiz-adv-x="1104" d="M70 489q0 231 134.5 378t352.5 147q88 0 159 -25t130 -72l111 141l58 -44l-118 -145q64 -69 100 -162.5t36 -203.5q0 -104 -33 -204.5t-94 -170.5q-69 -80 -160 -119t-204 -39q-79 0 -152 27t-135 78q-43 -52 -83 -102t-43 -54l-58 43l133 163q-61 68 -97.5 158.5 t-36.5 205.5zM273 506q0 -69 8.5 -136t25.5 -122l456 567q-33 58 -81.5 90.5t-126.5 32.5q-81 0 -135.5 -39.5t-87.5 -102.5q-32 -61 -45.5 -139t-13.5 -151zM340 179q34 -62 85 -97.5t130 -35.5q70 0 122.5 36.5t85.5 97.5q35 67 51 144t16 177q0 63 -8 128t-26 119z" />
<glyph unicode="&#xf9;" horiz-adv-x="1178" d="M35 909v65l329 24l15 -14v-685q0 -107 48 -161t115 -54q55 0 98 17t72 40q27 21 47.5 44.5t31.5 43.5v559q0 33 -14 58.5t-39 43.5q-18 12 -53.5 14.5t-79.5 4.5v65l358 24l15 -14v-783q0 -34 14 -58t39 -41q18 -11 43 -14.5t55 -4.5v-65l-321 -22l-15 14v125h-6 q-24 -25 -54 -53.5t-69 -51.5q-45 -27 -87 -41t-119 -14q-131 0 -199.5 85.5t-68.5 248.5v472q0 36 -13.5 60.5t-39.5 42.5q-18 12 -45 17.5t-57 7.5zM358 1460q0 29 23 53.5t59 24.5q39 0 67 -18t60 -70q34 -55 80 -125.5t122 -182.5l-38 -32q-103 82 -184 143.5t-120 93.5 q-38 32 -53.5 52t-15.5 61z" />
<glyph unicode="&#xfa;" horiz-adv-x="1178" d="M35 909v65l329 24l15 -14v-685q0 -107 48 -161t115 -54q55 0 98 17t72 40q27 21 47.5 44.5t31.5 43.5v559q0 33 -14 58.5t-39 43.5q-18 12 -53.5 14.5t-79.5 4.5v65l358 24l15 -14v-783q0 -34 14 -58t39 -41q18 -11 43 -14.5t55 -4.5v-65l-321 -22l-15 14v125h-6 q-24 -25 -54 -53.5t-69 -51.5q-45 -27 -87 -41t-119 -14q-131 0 -199.5 85.5t-68.5 248.5v472q0 36 -13.5 60.5t-39.5 42.5q-18 12 -45 17.5t-57 7.5zM397 1142q90 133 125.5 187.5t76.5 120.5q31 51 60 69.5t67 18.5q36 0 59 -24.5t23 -53.5q0 -38 -17.5 -62t-51.5 -51 q-50 -40 -130.5 -102t-173.5 -135z" />
<glyph unicode="&#xfb;" horiz-adv-x="1178" d="M35 909v65l329 24l15 -14v-685q0 -107 48 -161t115 -54q55 0 98 17t72 40q27 21 47.5 44.5t31.5 43.5v559q0 33 -14 58.5t-39 43.5q-18 12 -53.5 14.5t-79.5 4.5v65l358 24l15 -14v-783q0 -34 14 -58t39 -41q18 -11 43 -14.5t55 -4.5v-65l-321 -22l-15 14v125h-6 q-24 -25 -54 -53.5t-69 -51.5q-45 -27 -87 -41t-119 -14q-131 0 -199.5 85.5t-68.5 248.5v472q0 36 -13.5 60.5t-39.5 42.5q-18 12 -45 17.5t-57 7.5zM248 1150l237 347q17 25 32.5 35t57.5 10q40 0 55 -10.5t29 -30.5l239 -351l-48 -32l-279 273l-275 -273z" />
<glyph unicode="&#xfc;" horiz-adv-x="1178" d="M35 909v65l329 24l15 -14v-685q0 -107 48 -161t115 -54q55 0 98 17t72 40q27 21 47.5 44.5t31.5 43.5v559q0 33 -14 58.5t-39 43.5q-18 12 -53.5 14.5t-79.5 4.5v65l358 24l15 -14v-783q0 -34 14 -58t39 -41q18 -11 43 -14.5t55 -4.5v-65l-321 -22l-15 14v125h-6 q-24 -25 -54 -53.5t-69 -51.5q-45 -27 -87 -41t-119 -14q-131 0 -199.5 85.5t-68.5 248.5v472q0 36 -13.5 60.5t-39.5 42.5q-18 12 -45 17.5t-57 7.5zM240 1364q0 51 34.5 87t83.5 36t83.5 -36t34.5 -87t-34.5 -87t-83.5 -36t-83.5 36t-34.5 87zM670 1364q0 51 34.5 87 t83.5 36t83.5 -36t34.5 -87t-34.5 -87t-83.5 -36t-83.5 36t-34.5 87z" />
<glyph unicode="&#xfd;" horiz-adv-x="1008" d="M-19 920v66h450v-70q-30 -1 -72 -12.5t-42 -26.5q0 -6 4.5 -20t10.5 -29q38 -99 116 -285.5t121 -298.5q45 107 93.5 221.5t108.5 270.5q7 19 20 52.5t13 57.5q0 26 -45.5 48.5t-86.5 27.5v64h366v-62q-30 -5 -79 -34.5t-73 -83.5q-119 -276 -211.5 -503t-140.5 -334 q-63 -140 -112.5 -218.5t-96.5 -123.5q-46 -42 -83.5 -56.5t-77.5 -14.5q-78 0 -122.5 37t-44.5 85q0 50 27.5 81.5t68.5 31.5q32 0 55 -12t41 -31q15 -15 32 -41t27 -43q50 27 119.5 141t100.5 200q-95 237 -172 424t-161 387q-19 46 -64 71.5t-90 32.5zM348 1142 q90 133 125.5 187.5t76.5 120.5q31 51 60 69.5t67 18.5q36 0 59 -24.5t23 -53.5q0 -38 -17.5 -62t-51.5 -51q-50 -40 -130.5 -102t-173.5 -135z" />
<glyph unicode="&#xfe;" horiz-adv-x="1145" d="M-19 1461v64l365 23l14 -15v-656l6 -4q52 60 129 100t153 40q92 0 168.5 -39.5t131.5 -104.5q59 -70 91.5 -162.5t32.5 -211.5q0 -117 -38.5 -214t-103.5 -164q-67 -69 -149 -106t-174 -37q-89 0 -146 20t-93 47h-8v-296q0 -36 14 -60t43 -35q23 -9 68 -17.5t74 -9.5v-67 h-551v67q31 2 60 4.5t52 10.5q30 10 42 35t12 59v1584q-3 32 -17 67t-39 52q-18 12 -63.5 18t-73.5 8zM360 209q9 -27 29.5 -56t45.5 -50q31 -25 67 -40.5t88 -15.5q56 0 108 29.5t87 83.5q40 62 59 144t19 183q0 74 -16 151t-50 134q-34 58 -89 94t-132 36 q-74 0 -126 -32.5t-90 -77.5v-583z" />
<glyph unicode="&#xff;" horiz-adv-x="1008" d="M-19 920v66h450v-70q-30 -1 -72 -12.5t-42 -26.5q0 -6 4.5 -20t10.5 -29q38 -99 116 -285.5t121 -298.5q45 107 93.5 221.5t108.5 270.5q7 19 20 52.5t13 57.5q0 26 -45.5 48.5t-86.5 27.5v64h366v-62q-30 -5 -79 -34.5t-73 -83.5q-119 -276 -211.5 -503t-140.5 -334 q-63 -140 -112.5 -218.5t-96.5 -123.5q-46 -42 -83.5 -56.5t-77.5 -14.5q-78 0 -122.5 37t-44.5 85q0 50 27.5 81.5t68.5 31.5q32 0 55 -12t41 -31q15 -15 32 -41t27 -43q50 27 119.5 141t100.5 200q-95 237 -172 424t-161 387q-19 46 -64 71.5t-90 32.5zM210 1364 q0 51 34.5 87t83.5 36t83.5 -36t34.5 -87t-34.5 -87t-83.5 -36t-83.5 36t-34.5 87zM640 1364q0 51 34.5 87t83.5 36t83.5 -36t34.5 -87t-34.5 -87t-83.5 -36t-83.5 36t-34.5 87z" />
<glyph unicode="&#x152;" horiz-adv-x="2044" d="M80 719q0 178 66 310.5t177 220.5q108 86 247 127.5t280 41.5h1039v-342h-75q-19 75 -86 161t-127 94q-31 4 -74 6t-98 2h-213v-564h150q72 0 108 12.5t67 50.5q22 29 37.5 77.5t20.5 91.5h75v-555h-75q-4 48 -21.5 101.5t-36.5 77.5q-29 37 -68.5 50t-106.5 13h-150 v-426q0 -62 9 -100.5t35 -56.5q27 -19 71.5 -24.5t127.5 -5.5h85.5t87.5 4q41 5 77.5 15t53.5 28q46 48 96.5 145.5t64.5 143.5h72l-27 -418h-1154q-213 0 -392.5 99.5t-265.5 266.5q-36 70 -56.5 158t-20.5 195zM322 717q0 -284 149.5 -459.5t392.5 -175.5q27 0 62.5 1.5 t76.5 3.5v1244q-41 2 -84.5 3.5t-70.5 1.5q-116 0 -209 -34.5t-166 -111.5q-70 -73 -110.5 -192t-40.5 -281z" />
<glyph unicode="&#x153;" horiz-adv-x="1672" d="M70 489q0 110 31 204t94 168q60 71 150.5 112t203.5 41q114 0 205 -57.5t140 -134.5q53 84 139.5 138t190.5 54t174.5 -32.5t117.5 -89.5q46 -56 68 -132.5t22 -163.5v-72h-624q3 -221 81.5 -330.5t230.5 -109.5q104 0 164 51.5t103 140.5l70 -43q-58 -123 -159.5 -191 t-224.5 -68q-113 0 -208 51.5t-153 143.5q-62 -92 -152.5 -145.5t-203.5 -53.5q-90 0 -173.5 35.5t-147.5 103.5q-64 67 -101.5 163.5t-37.5 216.5zM276 505q0 -99 15.5 -182t45.5 -143q32 -63 81.5 -99t120.5 -36q119 0 184 109.5t65 335.5q0 84 -11 168t-38 144 q-28 62 -77 99.5t-123 37.5q-77 0 -127.5 -39.5t-81.5 -103.5q-29 -60 -41.5 -138t-12.5 -153zM982 608h428q0 58 -6 115.5t-28 106.5q-21 48 -60.5 78.5t-103.5 30.5q-102 0 -166 -96.5t-64 -234.5z" />
<glyph unicode="&#x178;" horiz-adv-x="1260" d="M-44 1348v71h605v-71q-102 -2 -144 -14t-42 -34q0 -6 6 -21t17 -38q13 -26 31 -59.5t34 -64.5q47 -89 96 -177.5t128 -230.5q157 253 239.5 394.5t82.5 169.5q0 23 -17 37t-45 22q-29 8 -63 10.5t-63 5.5v71h493v-71q-17 -1 -54 -13.5t-53 -24.5q-39 -24 -53 -37t-54 -68 q-78 -110 -144 -223t-165 -287q-37 -64 -49 -103t-12 -113v-271q0 -36 14.5 -62.5t49.5 -42.5q21 -8 75 -19.5t87 -12.5v-71h-664v71q28 2 84 7.5t78 14.5q36 15 49.5 41t13.5 64v345q0 16 -19.5 58.5t-46.5 94.5q-60 116 -133 251t-127 231q-33 57 -58.5 86t-58.5 51 q-24 15 -57.5 23t-60.5 10zM326 1730q0 51 34.5 87t83.5 36t83.5 -36t34.5 -87t-34.5 -87t-83.5 -36t-83.5 36t-34.5 87zM776 1730q0 51 34.5 87t83.5 36t83.5 -36t34.5 -87t-34.5 -87t-83.5 -36t-83.5 36t-34.5 87z" />
<glyph unicode="&#x2c6;" horiz-adv-x="1024" d="M187 1150l237 347q17 25 32.5 35t57.5 10q40 0 55 -10.5t29 -30.5l239 -351l-48 -32l-279 273l-275 -273z" />
<glyph unicode="&#x2dc;" horiz-adv-x="1024" d="M130 1216q10 32 34 77t52 79q30 36 73 61.5t90 25.5q56 0 96.5 -16.5t74.5 -35.5q38 -21 64 -36t64 -15q40 0 64.5 9.5t38.5 26.5q16 19 26.5 41t25.5 57l61 -23q-10 -38 -30 -78t-55 -79q-36 -39 -75.5 -62.5t-94.5 -23.5q-57 0 -100 16.5t-74 34.5q-35 20 -66.5 36 t-69.5 16q-31 0 -46.5 -8t-32.5 -27q-16 -18 -32 -47.5t-30 -53.5z" />
<glyph unicode="&#x2000;" horiz-adv-x="934" />
<glyph unicode="&#x2001;" horiz-adv-x="1868" />
<glyph unicode="&#x2002;" horiz-adv-x="934" />
<glyph unicode="&#x2003;" horiz-adv-x="1868" />
<glyph unicode="&#x2004;" horiz-adv-x="622" />
<glyph unicode="&#x2005;" horiz-adv-x="467" />
<glyph unicode="&#x2006;" horiz-adv-x="311" />
<glyph unicode="&#x2007;" horiz-adv-x="311" />
<glyph unicode="&#x2008;" horiz-adv-x="233" />
<glyph unicode="&#x2009;" horiz-adv-x="373" />
<glyph unicode="&#x200a;" horiz-adv-x="103" />
<glyph unicode="&#x2010;" horiz-adv-x="766" d="M85 465v157h596v-157h-596z" />
<glyph unicode="&#x2011;" horiz-adv-x="766" d="M85 465v157h596v-157h-596z" />
<glyph unicode="&#x2012;" horiz-adv-x="766" d="M85 465v157h596v-157h-596z" />
<glyph unicode="&#x2013;" d="M102 497v125h1113v-125h-1113z" />
<glyph unicode="&#x2014;" horiz-adv-x="1755" d="M102 497v125h1551v-125h-1551z" />
<glyph unicode="&#x2018;" horiz-adv-x="464" d="M76 1190q0 65 28 118.5t68 95.5q41 43 87 73t77 49l36 -60q-47 -27 -76 -46.5t-59 -51.5q-28 -29 -43 -62.5t-21 -85.5h48q62 0 97.5 -30.5t35.5 -89.5q0 -42 -31.5 -78.5t-86.5 -36.5q-86 0 -123 56.5t-37 148.5z" />
<glyph unicode="&#x2019;" horiz-adv-x="464" d="M92 1048q41 24 78.5 49.5t57.5 48.5q27 30 43 62.5t20 85.5h-48q-63 0 -98 32t-35 89q0 41 32 77.5t87 36.5q85 0 122 -56.5t37 -147.5q0 -66 -28.5 -120.5t-68.5 -94.5q-40 -41 -88 -73.5t-77 -47.5z" />
<glyph unicode="&#x201a;" horiz-adv-x="464" d="M92 -244q41 24 78.5 49.5t57.5 48.5q27 30 43 62.5t20 85.5h-48q-63 0 -98 32t-35 89q0 41 32 77.5t87 36.5q85 0 122 -56.5t37 -147.5q0 -66 -28.5 -120.5t-68.5 -94.5q-40 -41 -88 -73.5t-77 -47.5z" />
<glyph unicode="&#x201c;" horiz-adv-x="840" d="M79 1190q0 65 28 118.5t68 95.5q41 43 87 73t77 49l36 -60q-47 -27 -76 -46.5t-59 -51.5q-28 -30 -43 -63t-21 -85h48q62 0 97.5 -30.5t35.5 -89.5q0 -42 -31.5 -78.5t-86.5 -36.5q-86 0 -123 56.5t-37 148.5zM449 1190q0 65 28 118.5t68 95.5q41 43 87 73t77 49l36 -60 q-47 -27 -76 -46.5t-59 -51.5q-29 -31 -43.5 -63.5t-20.5 -84.5h48q62 0 97.5 -30.5t35.5 -89.5q0 -42 -31.5 -78.5t-86.5 -36.5q-86 0 -123 56.5t-37 148.5z" />
<glyph unicode="&#x201d;" horiz-adv-x="840" d="M95 1048q41 24 78.5 49.5t57.5 48.5q27 30 43 62.5t20 85.5h-48q-63 0 -98 32t-35 89q0 41 32 77.5t87 36.5q85 0 122 -56.5t37 -147.5q0 -66 -29 -120.5t-68 -94.5q-40 -41 -88 -73.5t-77 -47.5zM465 1048q41 24 78.5 49.5t57.5 48.5q27 30 43 62.5t20 85.5h-48 q-63 0 -98 32t-35 89q0 41 32 77.5t87 36.5q85 0 122 -56.5t37 -147.5q0 -66 -29 -120.5t-68 -94.5q-40 -41 -88 -73.5t-77 -47.5z" />
<glyph unicode="&#x201e;" horiz-adv-x="840" d="M95 -244q41 24 78.5 49.5t57.5 48.5q27 30 43 62.5t20 85.5h-48q-63 0 -98 32t-35 89q0 41 32 77.5t87 36.5q85 0 122 -56.5t37 -147.5q0 -66 -29 -120.5t-68 -94.5q-40 -41 -88 -73.5t-77 -47.5zM465 -244q41 24 78.5 49.5t57.5 48.5q27 30 43 62.5t20 85.5h-48 q-63 0 -98 32t-35 89q0 41 32 77.5t87 36.5q85 0 122 -56.5t37 -147.5q0 -66 -29 -120.5t-68 -94.5q-40 -41 -88 -73.5t-77 -47.5z" />
<glyph unicode="&#x2022;" horiz-adv-x="804" d="M138 599q0 109 77.5 186.5t186.5 77.5t186.5 -77.5t77.5 -186.5t-77.5 -186.5t-186.5 -77.5t-186.5 77.5t-77.5 186.5z" />
<glyph unicode="&#x2026;" horiz-adv-x="1653" d="M148 109q0 53 38.5 92t92.5 39q53 0 92 -39t39 -92q0 -54 -39.5 -91.5t-91.5 -37.5q-53 0 -92 38t-39 91zM699 109q0 53 38.5 92t92.5 39q53 0 92 -39t39 -92q0 -54 -39.5 -91.5t-91.5 -37.5q-53 0 -92 38t-39 91zM1250 109q0 53 38.5 92t92.5 39t92.5 -39t38.5 -92 t-39 -91t-92 -38t-92 38t-39 91z" />
<glyph unicode="&#x202f;" horiz-adv-x="373" />
<glyph unicode="&#x2039;" horiz-adv-x="850" d="M175 528q0 30 15.5 48.5t29.5 31.5l372 329l49 -41l-269 -367l269 -369l-49 -40l-375 332q-10 9 -26 27.5t-16 48.5z" />
<glyph unicode="&#x203a;" horiz-adv-x="850" d="M209 160l269 369l-269 367l49 41l372 -329q11 -9 28 -32t17 -48q0 -32 -16.5 -50t-25.5 -26l-375 -332z" />
<glyph unicode="&#x205f;" horiz-adv-x="467" />
<glyph unicode="&#x20ac;" horiz-adv-x="1315" d="M0 530l36 96h81q-2 26 -2 34.5v35.5q0 16 1.5 50.5t3.5 53.5h-120l36 96h97q19 93 59 181.5t107 164.5q89 101 206.5 154.5t258.5 53.5q105 0 185 -26t157 -73l41 68h80l9 -506h-82q-16 74 -48 160.5t-75 146.5q-48 68 -109 106.5t-146 38.5q-97 0 -174 -43t-136 -128 q-43 -63 -66.5 -138t-34.5 -160h394l-36 -96h-367q-1 -14 -1.5 -46t-0.5 -44q0 -32 0.5 -48.5t1.5 -35.5h301l-36 -96h-255q14 -82 40 -149.5t65 -120.5q63 -85 149.5 -132.5t186.5 -47.5q81 0 144 25.5t113 67.5q50 44 88 100t62 122l75 -36q-86 -211 -223 -301.5 t-333 -90.5q-127 0 -236.5 49t-198.5 144q-62 65 -109.5 165.5t-61.5 204.5h-127z" />
<glyph unicode="&#x2122;" horiz-adv-x="1930" d="M97 1221v198h679v-198h-48q-10 33 -40.5 82.5t-59.5 55.5q-22 2 -43 3t-35 1h-49v-524q0 -14 4.5 -23.5t20.5 -16.5q10 -3 37 -8.5t50 -5.5v-52h-353v52q20 0 49 3.5t38 6.5q15 5 20 16t5 22v530h-49q-15 0 -40 -1.5t-38 -2.5q-31 -5 -60.5 -55.5t-39.5 -82.5h-48z M892 733v50q16 3 47.5 7.5t47.5 15.5q17 13 23 36t6 86v347q0 24 -7.5 40t-21.5 28q-15 12 -37.5 17.5t-51.5 7.5v51h278l211 -472l176 387q11 25 16.5 47.5t8.5 37.5h268v-51q-17 -1 -43.5 -5t-37.5 -8q-15 -3 -19 -14t-4 -22v-484q0 -14 4 -22.5t19 -15.5q10 -3 34.5 -7.5 t46.5 -4.5v-52h-346v52q16 0 45.5 2.5t39.5 7.5q16 11 22 18t6 22v451h-15l-244 -531h-32l-237 541h-15v-364q0 -53 6.5 -80.5t22.5 -41.5q13 -8 44 -16.5t54 -8.5v-52h-315z" />
<glyph unicode="&#xe000;" horiz-adv-x="985" d="M0 0v985h985v-985h-985z" />
<glyph unicode="&#xfb01;" horiz-adv-x="1193" d="M24 886v96h195v23q0 134 36 231t116 182q49 53 135.5 92.5t178.5 39.5q144 0 220 -45t76 -123q0 -45 -26 -77t-66 -32q-44 0 -72 19t-44 48q-16 28 -27 67.5t-19 63.5h-54q-55 0 -100 -19.5t-86 -70.5q-38 -47 -60 -127t-22 -189v-83h331l248 16l14 -14v-803 q0 -35 13.5 -58t42.5 -34q22 -9 43 -15t47 -8v-66h-473v66q23 2 45.5 4.5t40.5 8.5q28 9 41.5 31.5t13.5 58.5v631q0 31 -7 50t-22 41h-378v-712q0 -35 13.5 -57t42.5 -33q23 -9 48 -15t53 -8v-66h-488v66q23 2 47.5 4.5t42.5 8.5q28 9 41.5 31.5t13.5 58.5v717h-195z" />
<glyph unicode="&#xfb02;" horiz-adv-x="1208" d="M24 886v96h195v23q0 134 35 231t117 183q42 46 126.5 88.5t187.5 42.5q69 0 127 -10.5t102 -29.5l81 38l14 -15v-1353q0 -35 13 -57.5t42 -34.5q22 -10 43.5 -15t48.5 -7v-66h-480v66q23 2 49 4.5t43 7.5q28 9 41.5 31.5t13.5 58.5v1192q0 48 -42.5 79.5t-105.5 31.5 q-59 0 -105 -19.5t-86 -70.5q-37 -47 -58 -126.5t-21 -189.5v-83h244v-96h-244v-707q0 -35 13.5 -57t42.5 -33q23 -9 48 -15t53 -8v-66h-488v66q23 2 47.5 4.5t42.5 8.5q28 9 41.5 31.5t13.5 58.5v717h-195z" />
</font>
</defs>
</svg>
